<?xml version="1.0" encoding="UTF-8" standalone="no"?> <svg xmlns="http://www.w3.org/2000/svg" viewBox="0 0 64 64"><g id="Layer_70" data-name="Layer 70"><path d="M60,50.43H5.5V24.71a1.5,1.5,0,0,0-3,0V51.93A1.5,1.5,0,0,0,4,53.43H60A1.5,1.5,0,0,0,60,50.43Z"/><path d="M12,46.21a1.51,1.51,0,0,0,1.12-.5l16.23-18.1,4.25,4.73a1.54,1.54,0,0,0,1.37.48,1.61,1.61,0,0,0,.86-.48L50.5,16v4.59a1.5,1.5,0,0,0,3,0V12.07a1.5,1.5,0,0,0-1.5-1.5H43.48a1.5,1.5,0,0,0,0,3h5.16L34.72,29.1l-4.25-4.74a1.55,1.55,0,0,0-2.24,0L10.88,43.71A1.51,1.51,0,0,0,12,46.21Z"/></g></svg>