<?xml version='1.0' encoding='utf-8'?>
<svg xmlns="http://www.w3.org/2000/svg" width="210mm" height="297mm" style="shape-rendering:geometricPrecision; text-rendering:geometricPrecision; image-rendering:optimizeQuality; fill-rule:evenodd; clip-rule:evenodd" viewBox="0 0 210 297"> <defs> <style type="text/css">  .fil1 {fill:white} .fil0 {fill:black}  </style> </defs> <g id="Warstwa_x0020_1"> <metadata id="CorelCorpID_0Corel-Layer"/> <path class="fil0" d="M99.0811 102.271c-5.1125,1.7988 -7.9139,4.133 -6.5968,7.4214 -42.9818,11.9654 -50.8847,48.0312 -44.3742,69.2563 0.8492,2.7684 1.9622,5.7989 3.4558,8.9289 -0.8524,0.7176 -1.1453,1.8083 -0.2269,3.6197 -0.9712,0.2172 -1.8292,0.4919 -2.6098,0.8063 -4.7074,-1.6778 -9.8273,-0.8913 -11.969,-0.1449 -2.5045,0.8727 -3.901,2.7461 -1.0183,5.412 -3.4895,0.0007 -6.1035,0.4708 -7.6304,1.4556 -1.1618,0.7493 -1.6249,2.0227 -0.7252,3.8078 -2.9453,0.2701 -5.1213,0.8322 -6.1988,1.8113 -0.8926,0.811 -1.2227,2.2332 -0.2284,3.3632 -1.483,0.2039 -2.7316,0.6976 -3.6693,1.5761 -3.5195,-0.1022 -6.1156,0.5425 -7.2279,1.6155 -0.8928,0.8612 -1.0009,2.7033 0.429,3.8646 -3.3993,1.8346 -6.2466,3.8604 -7.8648,6.3115 -1.1161,1.6907 -2.3798,4.7813 0.6018,5.4058 1.1407,0.2389 2.6292,-0.2013 4.3253,-1.047 0.8969,0.8498 2.5585,0.7563 5.3191,-0.6927 0.2082,0.6278 0.7101,1.1987 1.6556,1.6704 1.6416,0.8189 4.0952,1.3393 6.8361,1.3393 0.3399,0 0.6751,-0.0082 1.0052,-0.0238 0.438,2.9093 4.7796,3.4222 10.076,3.3482 3.2993,1.0252 6.8328,1.1843 10.6005,0.4769 2.2471,1.8283 7.4745,2.0604 10.2266,1.7048 2.5056,-0.3238 6.6079,-1.3126 5.5735,-3.7057 0.7086,0.1577 1.5943,0.275 2.6567,0.3515 0.412,1.5139 3.5768,2.3332 6.0016,2.5686 2.6181,0.2541 6.9506,0.0317 9.2282,-1.2482 2.1332,0.8807 5.535,1.1208 8.0991,0.8752 2.2262,-0.2133 5.5287,-0.9337 6.2067,-2.5098 1.7363,1.3181 4.8541,1.8082 7.2751,1.7851 2.0372,-0.0194 5.1664,-0.3031 7.0972,-1.3046 1.2481,0.279 2.6714,0.4374 4.1818,0.4374 0.3399,0 0.6751,-0.0082 1.0052,-0.0238 0.438,2.9093 4.7796,3.4222 10.076,3.3482 3.2993,1.0252 6.8328,1.1843 10.6005,0.4769 2.2471,1.8283 7.4745,2.0604 10.2266,1.7048 2.5056,-0.3238 6.6079,-1.3126 5.5735,-3.7057 0.7086,0.1577 1.5943,0.275 2.6567,0.3515 0.412,1.5139 3.5768,2.3332 6.0016,2.5686 2.6181,0.2541 6.9506,0.0317 9.2282,-1.2482 2.1332,0.8807 5.535,1.1208 8.0991,0.8752 2.2262,-0.2133 5.5287,-0.9337 6.2067,-2.5098 1.7363,1.3181 4.8541,1.8082 7.2751,1.7851 2.9222,-0.0278 8.0924,-0.5982 8.7476,-3.0531 2.8755,-0.0228 5.147,-0.3546 6.5557,-1.1273 1.1673,-0.6403 2.3021,-1.3471 1.578,-2.9043 5.4855,-0.6382 5.3252,-3.1007 5.1247,-4.2554 -0.2272,-1.3087 -2.2134,-2.7677 -7.1778,-3.0286 0.6825,-1.8475 -2.5278,-5.3635 -4.725,-6.91 -2.3389,-1.6463 -7.3615,-4.6652 -9.0042,-2.5217 -1.1484,-1.1053 -2.4805,-2.1393 -4.0568,-3.079 2.8796,-1.1866 1.4857,-3.9387 0.3919,-4.7404 -1.9437,-1.4247 -6.6249,-2.1521 -11.8117,-1.0842 -0.2068,-0.1249 -0.4027,-0.2223 -0.5943,-0.307 2.4906,-0.6617 2.4691,-3.2169 1.5271,-4.3003 -0.9005,-1.0358 -2.9258,-2.0216 -6.654,-2.1834 3.4911,-5.5982 5.7401,-11.6287 6.915,-17.6328 3.1289,-15.9899 -2.5454,-50.0569 -25.8893,-62.3392 3.9374,-2.7979 5.4583,-6.1844 0.0286,-9.2766 0.113,-6.6899 -5.1547,-8.1369 -11.191,-8.835 1.509,-3.8018 4.0372,-6.772 7.4284,-9.0844 1.7415,-1.1875 3.5115,-2.0829 5.7396,-2.8015 2.5965,-0.8373 8.0517,-1.0155 8.89,-2.7807 -0.4264,-1.1404 -3.159,-2.4366 -5.0662,-2.7236 -1.7916,-0.2695 -3.6735,0.5601 -4.8617,-0.1684 -0.8872,-0.544 -0.4321,-1.8489 -0.1739,-3.5274 0.134,-2.0866 0.2523,-3.6898 -0.4319,-4.6479 -1.4802,-2.0731 -4.9253,-1.1689 -6.9092,-0.8103 -2.8358,0.5126 -5.5555,0.9849 -10.5051,5.3402 -1.5359,-9.3081 -4.5254,-14.1414 -8.8146,-14.9731 -1.4964,-0.2901 -3.151,-0.0932 -4.9575,0.5706 -2.6951,0.9905 -4.5851,2.5413 -6.674,4.3952 -0.589,0.5228 -1.0862,1.0947 -1.237,1.8258 -0.8165,3.9588 0.6048,9.0551 -0.2127,13.143 -1.1845,4.1936 -3.1744,1.8871 -4.4774,-1.4087 -0.5779,-1.4619 -1.697,-3.7779 -3.4888,-3.8598 -2.4245,-0.1105 -3.0067,2.2128 -4.001,3.7686 -0.6411,1.0027 -1.4385,1.5751 -2.3918,1.7167 -0.7036,0.1044 -1.4189,-0.232 -2.2927,-0.5964 -2.0658,-0.8615 -2.6789,-1.8676 -5.0367,-1.7556 -7.0657,0.3358 1.6372,5.0279 4.6032,8.4501 2.728,3.1475 5.9774,6.597 6.8016,9.5003 0.5408,1.9054 0.8618,3.8467 0.8446,5.8461z"/> <path class="fil1" d="M85.3592 208.038c1.2364,0 2.4011,0.0891 3.424,0.2468 0.6704,1.0012 1.6171,2.0547 2.7782,3.059 -1.3065,0.5978 -3.5962,0.9945 -6.2022,0.9945 -4.0613,0 -7.355,-0.9628 -7.355,-2.1502 0,-1.1873 3.2937,-2.1501 7.355,-2.1501z"/> <path class="fil1" d="M92.5538 215.832c-0.0667,-0.002 -0.1334,-0.004 -0.1996,-0.0065 -0.3986,-0.6523 -1.1234,-1.2409 -2.2456,-1.6687 0.4572,-0.1263 0.8851,-0.2694 1.2791,-0.4279 0.8496,-0.3417 1.4107,-0.7189 1.7602,-1.1435 1.0627,0.7538 2.1396,1.3732 3.1703,1.8442 -1.2837,0.2522 -2.4023,0.629 -3.2677,1.0935 -0.1847,0.0992 -0.3495,0.2021 -0.4967,0.3089z"/> <path class="fil1" d="M75.057 221.194l0.0638 0.0002c0.5662,0.3589 1.1723,0.7026 1.8119,1.0233 1.8153,0.9107 3.6174,1.4948 5.1761,1.7385 -0.902,0.8893 -3.7178,1.5383 -7.0518,1.5383 -1.5243,0 -2.9402,-0.1358 -4.1147,-0.368 -0.2281,-0.3877 -0.5698,-0.754 -1.0404,-1.0784 0.2066,-0.0695 0.4057,-0.1426 0.5968,-0.2195 1.6742,-0.6734 2.2281,-1.4834 2.2502,-2.5264 0.726,-0.0702 1.5017,-0.108 2.3081,-0.108z"/> <path class="fil1" d="M88.2651 214.546c1.9301,0.3876 3.1966,1.0375 3.1966,1.7736 0,1.1302 -2.9838,2.0567 -6.7735,2.1434 -1.1152,-1.0643 -2.6181,-2.1157 -4.3703,-2.9939 -0.4847,-0.2432 -0.9683,-0.4632 -1.4467,-0.6596 0.6419,-0.1903 1.4038,-0.3454 2.2503,-0.4555 1.2266,0.2667 2.6177,0.4176 4.0923,0.4176 1.0716,0 2.0989,-0.0798 3.0513,-0.2256z"/> <path class="fil1" d="M28.6789 212.024c1.8924,-3.5935 4.279,-6.0593 5.3295,-5.506 1.0506,0.5533 0.3679,3.9162 -1.5245,7.5098 -1.8924,3.5935 -4.2789,6.0592 -5.3295,5.5058 -1.0506,-0.553 -0.3678,-3.916 1.5245,-7.5096z"/> <path class="fil1" d="M19.4589 217.044c-0.5704,1.2848 -2.2652,3.1357 -4.5433,4.8335 -2.1387,1.5937 -4.2596,2.6566 -5.665,2.929 0.5856,-0.3782 1.1745,-0.8027 1.7559,-1.271 1.8645,-1.5013 3.3087,-3.1741 4.1545,-4.6846 0.4094,-0.7313 0.6117,-1.3341 0.6475,-1.8526 0.6692,0.0675 1.3676,0.1034 2.0857,0.1034 0.5338,0 1.0565,-0.0198 1.5647,-0.0577z"/> <path class="fil1" d="M6.8156 218.516c1.6319,-1.216 3.2536,-2.1229 4.555,-2.6055 0.7646,0.3434 1.68,0.6265 2.7014,0.8304 -0.3592,1.2793 -2.1657,3.3445 -4.6864,5.2231 -3.2565,2.4267 -6.4726,3.6235 -7.1827,2.6709 -0.7093,-0.9519 1.3564,-3.6918 4.6127,-6.1189z"/> <path class="fil1" d="M25.4263 208.608c1.4627,0 2.8253,0.1245 3.9709,0.3398 -0.5564,0.7572 -1.0898,1.6061 -1.5764,2.5265 -0.243,0.4597 -0.4647,0.9188 -0.6646,1.3738 -0.2944,0.0208 -0.5957,0.0363 -0.9026,0.0464 -0.2403,-1.0359 -1.1603,-2.0116 -3.0055,-2.5937 -1.1519,-0.3634 -2.5182,-0.6128 -4.0045,-0.7076 1.3097,-0.5929 3.5895,-0.9852 6.1827,-0.9852z"/> <path class="fil1" d="M32.4243 218.172c0.2379,0.0132 0.4713,0.0298 0.7005,0.0495 0.2285,0.5854 0.7257,1.1182 1.6167,1.5627 0.8084,0.4032 1.8136,0.7339 2.9531,0.9659 -1.2493,0.252 -2.3382,0.623 -3.1851,1.0776 -0.2628,0.1411 -0.4861,0.2901 -0.6743,0.4463 -0.8606,0.1032 -1.8026,0.1605 -2.7904,0.1605 -0.795,0 -1.5602,-0.0373 -2.2773,-0.1056 -0.4869,-0.4256 -1.1612,-0.7969 -2.0496,-1.0772 -0.8673,-0.2736 -1.8559,-0.4828 -2.9259,-0.6098 -0.0667,-0.1164 -0.1022,-0.2357 -0.1022,-0.3576 0,-0.591 0.8165,-1.1264 2.1373,-1.5151 0.1025,1.1026 0.6093,1.7121 1.3073,2.0811 0.8205,0.4338 1.7857,0.4282 2.9828,-0.4291 0.7585,-0.5437 1.5468,-1.3093 2.3071,-2.2492z"/> <path class="fil1" d="M55.9197 211.728c-0.104,0.1211 -0.243,0.2383 -0.4139,0.3503 -2.4734,0.056 -4.6804,0.5359 -6.2196,1.2705 -0.1655,0.0032 -0.3321,0.0052 -0.5004,0.0052 -1.551,0 -2.9894,-0.1407 -4.1758,-0.3804 0.6523,-0.5257 0.8882,-1.1282 0.8882,-1.8379 0,-0.6019 -0.2099,-1.2043 -0.6768,-1.7434 1.0883,-0.204 2.3723,-0.3265 3.7514,-0.3379 0.2588,0.5052 0.7381,0.9661 1.5243,1.3584 1.4364,0.7165 3.4943,1.2044 5.8226,1.3152z"/> <path class="fil1" d="M55.7236 220.873c-0.8759,-0.1208 -1.8115,-0.1857 -2.7831,-0.1857 -2.4396,0 -4.6515,0.412 -6.2658,1.0801 -2.1016,-0.3786 -3.5034,-1.0571 -3.5034,-1.8316 0,-0.9786 2.2381,-1.8048 5.2989,-2.065 0.1971,0.1451 0.4248,0.2836 0.6869,0.4144 1.6416,0.8189 4.0952,1.3393 6.8361,1.3393 0.0709,0 0.1418,-0.0004 0.2122,-0.0011 -0.3067,0.3876 -0.4476,0.8084 -0.4818,1.2496z"/> <path class="fil1" d="M71.4195 220.369l0.0005 0.0122c0,1.1874 -3.2937,2.1502 -7.3551,2.1502 -4.0613,0 -7.355,-0.9628 -7.355,-2.1502 0,-0.2799 0.1834,-0.5477 0.5165,-0.793 1.9032,-0.1107 3.6154,-0.4738 4.9407,-1.0068 0.2583,-0.1039 0.4898,-0.2111 0.6969,-0.3218 0.1506,-0.0072 0.3031,-0.0133 0.4565,-0.0178 0.2708,0.2846 0.6357,0.5494 1.115,0.7885 1.6416,0.8189 4.0952,1.3393 6.8361,1.3393l0.1479 -0.0006z"/> <path class="fil1" d="M41.3057 221.444c0.3687,0 0.7307,0.0077 1.0848,0.023 0.2471,0.5401 0.7356,1.0323 1.5678,1.4475 0.2187,0.1091 0.4518,0.2126 0.6981,0.3106 -0.235,0.3875 -0.3258,0.8037 -0.3258,1.2368 0,0.3677 0.0714,0.7229 0.2398,1.059 -0.9839,0.1427 -2.092,0.2234 -3.2647,0.2234 -4.0613,0 -7.355,-0.9628 -7.355,-2.1502 0,-1.1873 3.2937,-2.1501 7.355,-2.1501z"/> <path class="fil1" d="M41.428 214.534c4.0614,0 7.3551,0.9628 7.3551,2.1501 0,0.0391 -0.004,0.0778 -0.011,0.1164 -2.0197,0.1969 -3.778,0.6825 -5.0175,1.3478 -0.372,0.1997 -0.6649,0.4156 -0.8913,0.6448 -0.4643,0.0269 -0.944,0.0412 -1.4353,0.0412 -4.0613,0 -7.355,-0.9628 -7.355,-2.1502 0,-1.1873 3.2937,-2.1501 7.355,-2.1501z"/> <path class="fil1" d="M68.5713 224.42c0.6876,0.2544 1.1831,0.5557 1.4212,0.8844 -0.1073,-0.0016 -0.215,-0.0023 -0.3233,-0.0023 -2.8567,0 -5.4015,0.5652 -7.0398,1.4446 -0.6174,0.3314 -1.0157,0.7074 -1.2566,1.1148 -3.3796,-0.194 -5.9302,-1.0646 -5.9302,-2.1095 0,-0.7285 1.2406,-1.3727 3.137,-1.7616 1.5546,0.5498 3.5583,0.8815 5.7452,0.8815 1.5368,0 2.9828,-0.1639 4.2465,-0.4519z"/> <path class="fil1" d="M52.4981 221.797c1.2281,0 2.3856,0.0878 3.4033,0.2434 0.2112,0.4896 0.6167,0.9409 1.2918,1.3325 -0.5006,0.1739 -0.9556,0.3703 -1.3564,0.5855 -1.079,0.5792 -1.4893,1.2946 -1.5591,2.0751 -0.57,0.0414 -1.1658,0.0638 -1.7796,0.0638 -4.0613,0 -7.355,-0.9628 -7.355,-2.1502 0,-1.1873 3.2937,-2.1501 7.355,-2.1501z"/> <path class="fil1" d="M79.8047 216.255c3.639,1.8036 6.1627,4.1288 5.6352,5.1926 -0.5271,1.0639 -3.9058,0.464 -7.5448,-1.3396 -0.3654,-0.181 -0.719,-0.3677 -1.0599,-0.5574 0.2115,-0.0709 0.415,-0.1456 0.6103,-0.2241 1.7095,-0.6876 2.2509,-1.5174 2.2509,-2.5924 0,-0.1883 -0.0205,-0.3766 -0.0631,-0.5631 0.057,0.0278 0.1142,0.0556 0.1714,0.084z"/> <path class="fil1" d="M72.8246 210.693c0.1858,0.1889 0.2859,0.3887 0.2859,0.5951 0,0.6008 -0.8433,1.1439 -2.2024,1.534 -1.6631,0.028 -3.2098,0.2477 -4.5191,0.6081 -0.2088,0.0052 -0.4201,0.0081 -0.6336,0.0081 -4.0613,0 -7.355,-0.9628 -7.355,-2.1502 0,-0.5755 0.7741,-1.0983 2.0341,-1.4843 0.1289,0.0802 0.2681,0.1582 0.419,0.2335 1.6416,0.8189 4.0952,1.3393 6.8361,1.3393 1.9106,0 3.6812,-0.253 5.135,-0.6836z"/> <path class="fil1" d="M56.0124 212.858c0.4581,0 0.9061,0.0122 1.3411,0.0356 0.2415,0.5546 0.7332,1.0598 1.5843,1.4845 1.0908,0.5441 2.5399,0.9561 4.1937,1.1715 -0.8217,0.9252 -3.6977,1.6087 -7.1191,1.6087 -4.0613,0 -7.355,-0.9628 -7.355,-2.1502 0,-1.1873 3.2937,-2.1501 7.355,-2.1501z"/> <path class="fil1" d="M56.8762 205.149c1.2171,0 2.3649,0.0864 3.3761,0.2394 -0.9987,0.617 -1.3202,1.372 -1.3202,2.187 0,0.588 0.1826,1.1442 0.6517,1.6404 -0.0899,0.0364 -0.1781,0.0734 -0.2643,0.1114 -0.7646,0.0788 -1.5866,0.1221 -2.4433,0.1221 -4.0613,0 -7.355,-0.9628 -7.355,-2.1502 0,-1.1873 3.2937,-2.1501 7.355,-2.1501z"/> <path class="fil1" d="M23.2563 219.158c-0.4307,0.3737 -0.6695,0.7853 -0.6695,1.2172 0,0.0548 0.0033,0.1088 0.01,0.1627 -0.483,-0.0304 -0.9806,-0.0461 -1.4889,-0.0461 -0.8771,0 -1.7227,0.0472 -2.5159,0.135 0.568,-0.6129 1.0475,-1.2142 1.4216,-1.7784 0.3589,-0.5412 0.6238,-1.0585 0.7822,-1.5329 0.2481,0.7474 1.1406,1.3865 2.4605,1.8425z"/> <path class="fil1" d="M36.8423 208.162c4.0614,0 7.3551,0.9628 7.3551,2.1501 0,1.1874 -3.2937,2.1502 -7.3551,2.1502 -0.4094,0 -0.8106,-0.0102 -1.2018,-0.029 0.4382,-1.2081 0.7133,-2.359 0.8194,-3.3758 0.0342,-0.3275 0.0469,-0.624 0.0393,-0.8932 0.1138,-0.0015 0.228,-0.0023 0.3431,-0.0023z"/> <path class="fil1" d="M17.8341 210.564c4.0508,0.2934 7.2664,1.4917 7.1806,2.6759 -0.0858,1.1843 -3.4405,1.9066 -7.4911,1.6132 -4.0508,-0.2934 -7.2664,-1.4917 -7.1806,-2.676 0.0858,-1.1843 3.4405,-1.9065 7.4911,-1.6131z"/> <path class="fil1" d="M21.5005 221.499c4.0614,0 7.3551,0.9628 7.3551,2.1501 0,0.1151 -0.0315,0.2281 -0.0911,0.3383 -1.9413,0.208 -3.6294,0.684 -4.8305,1.3287 -0.2472,0.1327 -0.4595,0.2723 -0.6405,0.4185 -0.5741,0.0421 -1.1744,0.0647 -1.793,0.0647 -3.4064,0 -6.272,-0.6775 -7.1079,-1.5966 0.5926,-0.3816 1.1886,-0.8107 1.777,-1.2846 0.425,-0.3422 0.8283,-0.6935 1.2075,-1.0496 1.1762,-0.2333 2.5953,-0.3695 4.1234,-0.3695z"/> <path class="fil1" d="M30.7519 224.827c0.807,0 1.583,0.0379 2.3096,0.1081 0.0682,0.2019 0.1667,0.3976 0.3009,0.5863 -0.6129,0.196 -1.1638,0.4248 -1.6388,0.6797 -1.1956,0.6418 -1.5701,1.4513 -1.5701,2.3307 0,0.2007 0.0216,0.3976 0.0683,0.5898 -3.8138,-0.0795 -6.8249,-1.0093 -6.8249,-2.1445 0,-1.1873 3.2937,-2.1501 7.355,-2.1501z"/> <path class="fil1" d="M43.1643 227.872c-0.8053,0.5845 -1.0728,1.2782 -1.0728,2.0217 0,0.0673 0.0022,0.134 0.0072,0.2005 -1.0543,0.1706 -2.2665,0.2682 -3.5568,0.2682 -4.0613,0 -7.355,-0.9628 -7.355,-2.1502 0,-0.7399 1.2796,-1.3928 3.2267,-1.7796 0.0946,0.055 0.1942,0.109 0.2996,0.1616 1.6416,0.8189 4.0952,1.3393 6.8361,1.3393 0.5515,0 1.0911,-0.0212 1.615,-0.0615z"/> <path class="fil1" d="M55.1207 228.125c0.2439,0.214 0.5476,0.4154 0.9198,0.6011 0.5456,0.2722 1.1807,0.5109 1.8864,0.709 -0.3926,1.0793 -3.5174,1.9205 -7.3131,1.9205 -4.0613,0 -7.355,-0.9628 -7.355,-2.1502 0,-0.8138 1.5476,-1.5223 3.8288,-1.8874 1.5692,0.5729 3.6152,0.9201 5.8529,0.9201 0.752,0 1.4823,-0.0394 2.1802,-0.1131z"/> <path class="fil1" d="M69.6947 226.25c4.0614,0 7.3551,0.9628 7.3551,2.1501 0,1.1874 -3.2937,2.1502 -7.3551,2.1502 -4.0613,0 -7.355,-0.9628 -7.355,-2.1502 0,-1.1873 3.2937,-2.1501 7.355,-2.1501z"/> <path class="fil1" d="M87.8984 205.979c-1.0457,0.8151 -3.7354,1.3956 -6.8884,1.3956 -1.9731,0 -3.7649,-0.2276 -5.0859,-0.5974 -0.0706,-0.1716 -0.1612,-0.3405 -0.2736,-0.5046 0.7696,-0.3229 1.2899,-0.6773 1.6238,-1.073 1.6406,-0.0236 3.1693,-0.2339 4.4708,-0.5816l0.0684 0.035c1.4901,0.7433 3.6491,1.2405 6.0849,1.326z"/> <path class="fil1" d="M76.0924 208.097c1.0268,0.0068 2.0013,0.075 2.8828,0.1928 -0.2863,0.1175 -0.554,0.2431 -0.8012,0.3758 -1.1956,0.6418 -1.5701,1.4513 -1.5701,2.3307 0,0.4855 0.1246,0.9494 0.4321,1.3758 -0.3631,0.0161 -0.7346,0.0247 -1.1131,0.0247 -0.6269,0 -1.2351,-0.0232 -1.816,-0.0663 0.0044,-0.0655 0.0064,-0.1317 0.0064,-0.199 0,-0.5715 -0.1894,-1.1435 -0.6081,-1.6613 0.1224,-0.0442 0.2418,-0.0895 0.3583,-0.1364 1.5161,-0.6098 2.1131,-1.3315 2.2289,-2.2368z"/> <path class="fil1" d="M71.2944 213.724c4.0614,0 7.3551,0.9628 7.3551,2.1501 0,1.1874 -3.2937,2.1502 -7.3551,2.1502 -4.0613,0 -7.355,-0.9628 -7.355,-2.1502 0,-1.1873 3.2937,-2.1501 7.355,-2.1501z"/> <path class="fil1" d="M69.4668 200.722c4.0614,0 7.3551,0.9628 7.3551,2.1501 0,0.7663 -1.3725,1.4388 -3.4373,1.8196 -0.1102,-0.0402 -0.2235,-0.0789 -0.3411,-0.116 -1.493,-0.471 -3.3464,-0.7501 -5.3539,-0.7501 -0.2732,0 -0.5434,0.005 -0.8104,0.0151 0.003,-0.0542 0.0043,-0.1089 0.0043,-0.1644 0,-0.9296 -0.5011,-1.8602 -1.6752,-2.5576 1.2019,-0.25 2.6714,-0.3967 4.2585,-0.3967z"/> <path class="fil1" d="M88.4796 199.399c4.0614,0 7.3551,0.9628 7.3551,2.1501 0,1.1874 -3.2937,2.1502 -7.3551,2.1502 -4.0613,0 -7.355,-0.9628 -7.355,-2.1502 0,-1.1873 3.2937,-2.1501 7.355,-2.1501z"/> <path class="fil1" d="M81.6765 199.188c0.3242,0.0782 0.6246,0.1641 0.8987,0.2572 -0.3487,0.1361 -0.6716,0.2838 -0.9654,0.4415 -1.1956,0.6418 -1.5701,1.4513 -1.5701,2.3307 0,0.1971 0.0209,0.3903 0.0658,0.5793 -0.7043,0.0961 -1.4693,0.1606 -2.2735,0.1871 -0.3047,-0.9641 -1.222,-1.8574 -2.954,-2.4038 -1.1318,-0.3571 -2.4707,-0.6039 -3.9268,-0.7024 0.4814,-0.2001 0.8664,-0.4123 1.1699,-0.639 0.0781,-0.0203 0.158,-0.0402 0.239,-0.0595 1.3608,0.3526 2.962,0.5562 4.6757,0.5562 1.6991,0 3.2874,-0.2003 4.6407,-0.5473z"/> <path class="fil1" d="M55.3755 192.147c3.1582,0 5.8517,0.582 6.8937,1.3992 -1.855,0.2188 -3.4668,0.6838 -4.6254,1.3057 -0.8475,0.4549 -1.2826,0.9938 -1.464,1.5824 -0.2642,0.0084 -0.5324,0.013 -0.8043,0.013 -1.6366,0 -3.148,-0.1566 -4.37,-0.421 0.1281,-0.2943 0.1822,-0.6095 0.1822,-0.9495 0,-0.795 -0.3663,-1.591 -1.2069,-2.2409 1.3434,-0.4238 3.263,-0.6889 5.3947,-0.6889z"/> <path class="fil1" d="M64.5752 194.552c4.0614,0 7.3551,0.9628 7.3551,2.1501 0,1.1874 -3.2937,2.1502 -7.3551,2.1502 -4.0613,0 -7.355,-0.9628 -7.355,-2.1502 0,-1.1873 3.2937,-2.1501 7.355,-2.1501z"/> <path class="fil1" d="M76.7646 193.081c4.0614,0 7.3551,0.9628 7.3551,2.1501 0,1.1874 -3.2937,2.1502 -7.3551,2.1502 -1.3351,0 -2.5868,-0.1043 -3.6663,-0.2862 -0.0999,-1.1179 -0.9475,-2.2096 -2.8425,-2.8658 1.2324,-0.6829 3.6846,-1.1483 6.5088,-1.1483z"/> <path class="fil1" d="M69.2206 188.881c4.0614,0 7.3551,0.9628 7.3551,2.1501 0,0.4561 -0.4865,0.8789 -1.3153,1.2267 -1.5394,0.1307 -2.9358,0.4282 -4.0791,0.8458 -0.6243,0.0504 -1.2816,0.0777 -1.9607,0.0777 -4.0613,0 -7.355,-0.9628 -7.355,-2.1502 0,-1.1873 3.2937,-2.1501 7.355,-2.1501z"/> <path class="fil1" d="M59.2454 187.071c2.7979,0 5.231,0.4567 6.4744,1.1292 -1.3475,0.2519 -2.52,0.64 -3.4194,1.1228 -1.0456,0.5613 -1.4634,1.2507 -1.5517,2.0031 -0.4854,0.0295 -0.988,0.0452 -1.5033,0.0452 -4.0613,0 -7.355,-0.9628 -7.355,-2.1502 0,-1.1873 3.2937,-2.1501 7.355,-2.1501z"/> <path class="fil1" d="M28.8107 203.738c2.9021,0 5.4114,0.4914 6.608,1.2052 -0.1244,0.222 -0.2033,0.4531 -0.2463,0.691 -1.039,-0.3972 -2.4089,-0.1289 -3.9139,1.2496 -0.364,0.3335 -0.7296,0.7072 -1.0908,1.1176 -0.44,0.024 -0.8933,0.0369 -1.357,0.0369 -4.0613,0 -7.355,-0.9628 -7.355,-2.1502 0,-1.1873 3.2937,-2.1501 7.355,-2.1501z"/> <path class="fil1" d="M49.818 197.845c3.8783,0 7.0562,0.8777 7.3349,1.9907 -1.7273,0.0902 -3.2801,0.3656 -4.4716,0.7632l0.0004 0.0007c-1.17,0.3902 -2.0187,0.92 -2.4016,1.5412 -0.1529,0.0028 -0.3068,0.0045 -0.4621,0.0045 -2.6244,0 -4.9279,-0.4023 -6.2294,-1.0072 0.0558,-0.1526 0.0846,-0.3095 0.0846,-0.4707 0,-0.5073 -0.2853,-0.9752 -0.7979,-1.3833 1.0042,-0.8381 3.7334,-1.4391 6.9427,-1.4391z"/> <path class="fil1" d="M42.5081 192.253c4.0614,0 7.3551,0.9628 7.3551,2.1501 0,1.1874 -3.2937,2.1502 -7.3551,2.1502 -4.0613,0 -7.355,-0.9628 -7.355,-2.1502 0,-1.1873 3.2937,-2.1501 7.355,-2.1501z"/> <path class="fil1" d="M35.3004 198.519c4.0614,0 7.3551,0.9628 7.3551,2.1501 0,1.1874 -3.2937,2.1502 -7.3551,2.1502 -4.0613,0 -7.355,-0.9628 -7.355,-2.1502 0,-1.1873 3.2937,-2.1501 7.355,-2.1501z"/> <path class="fil1" d="M43.7675 203.312c3.7119,0 6.7818,0.804 7.2828,1.8488 -0.447,0.1616 -0.8557,0.3417 -1.2197,0.5371 -0.7733,0.4151 -1.2033,0.9001 -1.4104,1.4291 -1.2677,0.3031 -2.8875,0.4853 -4.6527,0.4853 -4.0613,0 -7.355,-0.9628 -7.355,-2.1502 0,-1.1873 3.2937,-2.1501 7.355,-2.1501z"/> <path class="fil1" d="M58.2992 200.771c4.0614,0 7.3551,0.9628 7.3551,2.1501 0,0.374 -0.3272,0.7252 -0.9019,1.0315 -1.1498,0.1363 -2.1832,0.3579 -3.0333,0.6415 -0.0989,0.033 -0.1956,0.0668 -0.2898,0.1018 -1.3166,-0.3091 -2.9136,-0.4905 -4.6297,-0.4905 -1.2727,0 -2.4795,0.0997 -3.5551,0.2772 -1.4163,-0.3919 -2.3003,-0.9465 -2.3003,-1.5615 0,-1.1873 3.2937,-2.1501 7.355,-2.1501z"/> <path class="fil1" d="M67.4484 204.744c4.0614,0 7.3551,0.9628 7.3551,2.1501 0,1.1874 -3.2937,2.1502 -7.3551,2.1502 -4.0613,0 -7.355,-0.9628 -7.355,-2.1502 0,-1.1873 3.2937,-2.1501 7.355,-2.1501z"/> <path class="fil1" d="M77.3858 190.289c0.4604,-0.2735 0.8571,-0.3542 1.1497,-0.2001 0.4615,0.243 0.5882,1.0284 0.4252,2.1371 -0.4018,-0.0312 -0.8254,-0.0524 -1.272,-0.0621 0.1018,-0.7776 -0.008,-1.3845 -0.3029,-1.8749z"/> <path class="fil1" d="M100.447 195.299c-0.104,0.1211 -0.243,0.2383 -0.4139,0.3503 -2.4734,0.056 -4.6804,0.5359 -6.2196,1.2705 -0.1655,0.0032 -0.3321,0.0052 -0.5004,0.0052 -1.551,0 -2.9894,-0.1407 -4.1758,-0.3804 0.6523,-0.5257 0.8882,-1.1282 0.8882,-1.8379 0,-0.6019 -0.2099,-1.2043 -0.6768,-1.7434 1.0883,-0.204 2.3723,-0.3265 3.7514,-0.3379 0.2588,0.5052 0.7381,0.9661 1.5243,1.3584 1.4364,0.7165 3.4943,1.2044 5.8226,1.3152z"/> <path class="fil1" d="M100.251 204.443c-0.8759,-0.1208 -1.8115,-0.1857 -2.7831,-0.1857 -0.4194,0 -0.8317,0.0125 -1.2358,0.036 0.5078,-0.4061 0.7504,-0.8928 0.8146,-1.3939 1.0683,0.1902 2.2419,0.2951 3.4739,0.2951 0.0709,0 0.1418,-0.0004 0.2122,-0.0011 -0.3067,0.3876 -0.4476,0.8084 -0.4818,1.2496z"/> <path class="fil1" d="M85.9551 198.104c1.5986,0 3.0777,0.1489 4.2844,0.4022 -1.8826,-0.1252 -4.0452,-0.0005 -6.3039,0.4645 -0.2068,-0.1249 -0.4027,-0.2223 -0.5943,-0.307 0.4428,-0.1176 0.8061,-0.2955 1.0991,-0.514 0.4889,-0.03 0.9954,-0.0457 1.5147,-0.0457z"/> <path class="fil1" d="M117.352 194.264c0.1858,0.1889 0.2859,0.3887 0.2859,0.5951 0,0.6008 -0.8433,1.1439 -2.2024,1.534 -1.6631,0.028 -3.2098,0.2477 -4.5191,0.6081 -0.2088,0.0052 -0.4201,0.0081 -0.6336,0.0081 -4.0613,0 -7.355,-0.9628 -7.355,-2.1502 0,-0.5755 0.7741,-1.0983 2.0341,-1.4843 0.1289,0.0802 0.2681,0.1582 0.419,0.2335 1.6416,0.8189 4.0952,1.3393 6.8361,1.3393 1.9106,0 3.6812,-0.253 5.135,-0.6836z"/> <path class="fil1" d="M100.54 196.429c0.4581,0 0.9061,0.0122 1.3411,0.0356 0.2415,0.5546 0.7332,1.0598 1.5843,1.4845 1.0908,0.5441 2.5399,0.9561 4.1937,1.1715 -0.8217,0.9252 -3.6977,1.6087 -7.1191,1.6087 -1.7131,0 -3.2893,-0.1714 -4.5395,-0.4587 -0.0846,-0.0819 -0.1696,-0.1541 -0.2527,-0.215 -0.5828,-0.4272 -1.4118,-0.7918 -2.4267,-1.064 -0.0889,-0.1336 -0.1361,-0.2714 -0.1361,-0.4125 0,-1.1873 3.2937,-2.1501 7.355,-2.1501z"/> <path class="fil1" d="M101.403 188.719c1.2171,0 2.3649,0.0864 3.3761,0.2394 -0.9987,0.617 -1.3202,1.372 -1.3202,2.187 0,0.588 0.1826,1.1442 0.6517,1.6404 -0.0899,0.0364 -0.1781,0.0734 -0.2643,0.1114 -0.7646,0.0788 -1.5866,0.1221 -2.4433,0.1221 -4.0613,0 -7.355,-0.9628 -7.355,-2.1502 0,-1.1873 3.2937,-2.1501 7.355,-2.1501z"/> <path class="fil1" d="M81.3694 191.733c4.0614,0 7.3551,0.9628 7.3551,2.1501 0,0.7487 -1.31,1.4078 -3.2958,1.7929 -0.0701,-0.5111 -0.2719,-0.9807 -0.5603,-1.3124 -0.644,-0.7407 -1.8631,-1.456 -3.8689,-1.8625 0.0249,-0.2776 0.0334,-0.5319 0.0268,-0.7658 0.1138,-0.0015 0.228,-0.0023 0.3431,-0.0023z"/> <path class="fil1" d="M132.426 189.55c-1.0457,0.8151 -3.7354,1.3956 -6.8884,1.3956 -1.9731,0 -3.7649,-0.2276 -5.0859,-0.5974 -0.0706,-0.1716 -0.1612,-0.3405 -0.2736,-0.5046 0.7696,-0.3229 1.2899,-0.6773 1.6238,-1.073 1.6406,-0.0236 3.1693,-0.2339 4.4708,-0.5816l0.0684 0.035c1.4901,0.7433 3.6491,1.2405 6.0849,1.326z"/> <path class="fil1" d="M120.62 191.668c1.0268,0.0068 2.0013,0.075 2.8828,0.1928 -0.2863,0.1175 -0.554,0.2431 -0.8012,0.3758 -1.1956,0.6418 -1.5701,1.4513 -1.5701,2.3307 0,0.4855 0.1246,0.9494 0.4321,1.3758 -0.3631,0.0161 -0.7346,0.0247 -1.1131,0.0247 -0.6269,0 -1.2351,-0.0232 -1.816,-0.0663 0.0044,-0.0655 0.0064,-0.1317 0.0064,-0.199 0,-0.5715 -0.1894,-1.1435 -0.6081,-1.6613 0.1224,-0.0442 0.2418,-0.0895 0.3583,-0.1364 1.5161,-0.6098 2.1131,-1.3315 2.2289,-2.2368z"/> <path class="fil1" d="M113.994 184.293c4.0614,0 7.3551,0.9628 7.3551,2.1501 0,0.7663 -1.3725,1.4388 -3.4373,1.8196 -0.1102,-0.0402 -0.2235,-0.0789 -0.3411,-0.116 -1.493,-0.471 -3.3464,-0.7501 -5.3539,-0.7501 -0.2732,0 -0.5434,0.005 -0.8104,0.0151 0.003,-0.0542 0.0043,-0.1089 0.0043,-0.1644 0,-0.9296 -0.5011,-1.8602 -1.6752,-2.5576 1.2019,-0.25 2.6714,-0.3967 4.2585,-0.3967z"/> <path class="fil1" d="M133.007 182.97c4.0614,0 7.3551,0.9628 7.3551,2.1501 0,1.1874 -3.2937,2.1502 -7.3551,2.1502 -4.0613,0 -7.355,-0.9628 -7.355,-2.1502 0,-1.1873 3.2937,-2.1501 7.355,-2.1501z"/> <path class="fil1" d="M126.204 182.758c0.3242,0.0782 0.6246,0.1641 0.8987,0.2572 -0.3487,0.1361 -0.6716,0.2838 -0.9654,0.4415 -1.1956,0.6418 -1.5701,1.4513 -1.5701,2.3307 0,0.1971 0.0209,0.3903 0.0658,0.5793 -0.7043,0.0961 -1.4693,0.1606 -2.2735,0.1871 -0.3047,-0.9641 -1.222,-1.8574 -2.954,-2.4038 -1.1318,-0.3571 -2.4707,-0.6039 -3.9268,-0.7024 0.4814,-0.2001 0.8664,-0.4123 1.1699,-0.639 0.0781,-0.0203 0.158,-0.0402 0.239,-0.0595 1.3608,0.3526 2.962,0.5562 4.6757,0.5562 1.6991,0 3.2874,-0.2003 4.6407,-0.5473z"/> <path class="fil1" d="M99.9026 175.718c3.1582,0 5.8517,0.582 6.8937,1.3992 -1.855,0.2188 -3.4668,0.6838 -4.6254,1.3057 -0.8475,0.4549 -1.2826,0.9938 -1.464,1.5824 -0.2642,0.0084 -0.5324,0.013 -0.8043,0.013 -1.6366,0 -3.148,-0.1566 -4.37,-0.421 0.1281,-0.2943 0.1822,-0.6095 0.1822,-0.9495 0,-0.795 -0.3663,-1.591 -1.2069,-2.2409 1.3434,-0.4238 3.263,-0.6889 5.3947,-0.6889z"/> <path class="fil1" d="M109.102 178.123c4.0614,0 7.3551,0.9628 7.3551,2.1501 0,1.1874 -3.2937,2.1502 -7.3551,2.1502 -4.0613,0 -7.355,-0.9628 -7.355,-2.1502 0,-1.1873 3.2937,-2.1501 7.355,-2.1501z"/> <path class="fil1" d="M121.292 176.652c4.0614,0 7.3551,0.9628 7.3551,2.1501 0,1.1874 -3.2937,2.1502 -7.3551,2.1502 -1.3351,0 -2.5868,-0.1043 -3.6663,-0.2862 -0.0999,-1.1179 -0.9475,-2.2096 -2.8425,-2.8658 1.2324,-0.6829 3.6846,-1.1483 6.5088,-1.1483z"/> <path class="fil1" d="M113.748 172.452c4.0614,0 7.3551,0.9628 7.3551,2.1501 0,0.4561 -0.4865,0.8789 -1.3153,1.2267 -1.5394,0.1307 -2.9358,0.4282 -4.0791,0.8458 -0.6243,0.0504 -1.2816,0.0777 -1.9607,0.0777 -4.0613,0 -7.355,-0.9628 -7.355,-2.1502 0,-1.1873 3.2937,-2.1501 7.355,-2.1501z"/> <path class="fil1" d="M103.772 170.642c2.7979,0 5.231,0.4567 6.4744,1.1292 -1.3475,0.2519 -2.52,0.64 -3.4194,1.1228 -1.0456,0.5613 -1.4634,1.2507 -1.5517,2.0031 -0.4854,0.0295 -0.988,0.0452 -1.5033,0.0452 -4.0613,0 -7.355,-0.9628 -7.355,-2.1502 0,-1.1873 3.2937,-2.1501 7.355,-2.1501z"/> <path class="fil1" d="M73.3378 187.309c2.9021,0 5.4114,0.4914 6.608,1.2052 -0.1244,0.222 -0.2033,0.4531 -0.2463,0.691 -0.7921,-0.3028 -1.7767,-0.2189 -2.8666,0.4488 -0.5294,-0.4413 -1.2803,-0.7657 -2.2169,-1.0508 -1.5847,-0.4825 -3.7711,-0.7665 -6.5374,-0.6468 1.3355,-0.3994 3.1983,-0.6474 5.2592,-0.6474z"/> <path class="fil1" d="M94.3451 181.416c3.8783,0 7.0562,0.8777 7.3349,1.9907 -1.7273,0.0902 -3.2801,0.3656 -4.4716,0.7632l0.0004 0.0007c-1.17,0.3902 -2.0187,0.92 -2.4016,1.5412 -0.1529,0.0028 -0.3068,0.0045 -0.4621,0.0045 -2.6244,0 -4.9279,-0.4023 -6.2294,-1.0072 0.0558,-0.1526 0.0846,-0.3095 0.0846,-0.4707 0,-0.5073 -0.2853,-0.9752 -0.7979,-1.3833 1.0042,-0.8381 3.7334,-1.4391 6.9427,-1.4391z"/> <path class="fil1" d="M87.0352 175.824c4.0614,0 7.3551,0.9628 7.3551,2.1501 0,1.1874 -3.2937,2.1502 -7.3551,2.1502 -4.0613,0 -7.355,-0.9628 -7.355,-2.1502 0,-1.1873 3.2937,-2.1501 7.355,-2.1501z"/> <path class="fil1" d="M79.8275 182.09c4.0614,0 7.3551,0.9628 7.3551,2.1501 0,1.1874 -3.2937,2.1502 -7.3551,2.1502 -4.0613,0 -7.355,-0.9628 -7.355,-2.1502 0,-1.1873 3.2937,-2.1501 7.355,-2.1501z"/> <path class="fil1" d="M88.2946 186.882c3.7119,0 6.7818,0.804 7.2828,1.8488 -0.447,0.1616 -0.8557,0.3417 -1.2197,0.5371 -0.7733,0.4151 -1.2033,0.9001 -1.4104,1.4291 -1.2677,0.3031 -2.8875,0.4853 -4.6527,0.4853 -4.0613,0 -7.355,-0.9628 -7.355,-2.1502 0,-1.1873 3.2937,-2.1501 7.355,-2.1501z"/> <path class="fil1" d="M102.826 184.342c4.0614,0 7.3551,0.9628 7.3551,2.1501 0,0.374 -0.3272,0.7252 -0.9019,1.0315 -1.1498,0.1363 -2.1832,0.3579 -3.0333,0.6415 -0.0989,0.033 -0.1956,0.0668 -0.2898,0.1018 -1.3166,-0.3091 -2.9136,-0.4905 -4.6297,-0.4905 -1.2727,0 -2.4795,0.0997 -3.5551,0.2772 -1.4163,-0.3919 -2.3003,-0.9465 -2.3003,-1.5615 0,-1.1873 3.2937,-2.1501 7.355,-2.1501z"/> <path class="fil1" d="M111.976 188.315c4.0614,0 7.3551,0.9628 7.3551,2.1501 0,1.1874 -3.2937,2.1502 -7.3551,2.1502 -4.0613,0 -7.355,-0.9628 -7.355,-2.1502 0,-1.1873 3.2937,-2.1501 7.355,-2.1501z"/> <path class="fil1" d="M200.952 220.948c3.7428,0.1003 6.6756,1.0207 6.6756,2.141 0,1.1874 -3.2937,2.1502 -7.3551,2.1502 -2.9928,0 -5.5683,-0.5232 -6.7166,-1.2735 0.3704,-0.1095 0.7199,-0.2301 1.0463,-0.3614 1.3143,-0.5286 1.9382,-1.1415 2.1565,-1.8851 0.2503,0.0797 0.4952,0.1492 0.7339,0.2076 1.7891,0.437 2.713,0.0782 3.3396,-0.7953 0.0426,-0.0594 0.0824,-0.1206 0.1198,-0.1835z"/> <path class="fil1" d="M185.05 209.644c0.7046,0.5173 1.3537,1.0491 1.9323,1.5754 -0.4653,0.7341 -0.5395,1.6551 0.1094,2.8845 0.3271,0.6191 0.7754,1.2717 1.3288,1.9309 -1.3984,-0.1832 -3.6447,-1.2575 -5.9153,-2.9244 -2.0611,-1.5129 -3.6505,-3.1531 -4.3704,-4.3998 1.5903,-0.0943 3.0463,-0.3651 4.2536,-0.7638 0.8483,0.4582 1.7529,1.0301 2.6616,1.6972z"/> <path class="fil1" d="M187.982 217.858c0.8241,0 1.6162,0.0393 2.356,0.1125 0.4748,0.4126 0.9861,0.8172 1.5291,1.2064 0.9464,0.6786 1.9051,1.2504 2.834,1.7063 -1.1471,0.7511 -3.724,1.2751 -6.7191,1.2751 -4.0613,0 -7.355,-0.9628 -7.355,-2.1502 0,-1.1873 3.2937,-2.1501 7.355,-2.1501z"/> <path class="fil1" d="M173.587 210.793c1.2364,0 2.4011,0.0891 3.424,0.2468 0.6704,1.0012 1.6171,2.0547 2.7782,3.059 -1.3065,0.5978 -3.5962,0.9945 -6.2022,0.9945 -4.0613,0 -7.355,-0.9628 -7.355,-2.1502 0,-1.1873 3.2937,-2.1501 7.355,-2.1501z"/> <path class="fil1" d="M180.782 218.588c-0.0667,-0.002 -0.1334,-0.004 -0.1996,-0.0065 -0.3986,-0.6523 -1.1234,-1.2409 -2.2456,-1.6687 0.4572,-0.1263 0.8851,-0.2694 1.2791,-0.4279 0.8496,-0.3417 1.4107,-0.7189 1.7602,-1.1435 1.0627,0.7538 2.1396,1.3732 3.1703,1.8442 -1.2837,0.2522 -2.4023,0.629 -3.2677,1.0935 -0.1847,0.0992 -0.3495,0.2021 -0.4967,0.3089z"/> <path class="fil1" d="M163.285 223.95l0.0638 0.0002c0.5662,0.3589 1.1723,0.7026 1.8119,1.0233 1.8153,0.9107 3.6174,1.4948 5.1761,1.7385 -0.902,0.8893 -3.7178,1.5383 -7.0518,1.5383 -1.5243,0 -2.9402,-0.1358 -4.1147,-0.368 -0.2281,-0.3877 -0.5698,-0.754 -1.0404,-1.0784 0.2066,-0.0695 0.4057,-0.1426 0.5968,-0.2195 1.6742,-0.6734 2.2281,-1.4834 2.2502,-2.5264 0.726,-0.0702 1.5017,-0.108 2.3081,-0.108z"/> <path class="fil1" d="M178.752 222.929c0.8562,0 1.6778,0.0428 2.4421,0.1214 0.1629,0.1094 0.3448,0.2148 0.5467,0.3155 1.0749,0.5362 2.4979,0.9441 4.1218,1.162 0.159,0.1759 0.2445,0.3607 0.2445,0.5512 0,1.1874 -3.2937,2.1502 -7.3551,2.1502 -2.1464,0 -4.0779,-0.2692 -5.4226,-0.6981 0.4556,-0.2279 0.7653,-0.5776 0.9921,-1.0298 0.2916,-0.581 0.3642,-1.2724 0.1297,-2.0287 1.0467,-0.0961 2.0249,-0.2691 2.8997,-0.5047 0.4537,-0.0256 0.9219,-0.039 1.4011,-0.039z"/> <path class="fil1" d="M176.493 217.302c1.9301,0.3876 3.1966,1.0375 3.1966,1.7736 0,1.1302 -2.9838,2.0567 -6.7735,2.1434 -1.1152,-1.0643 -2.6181,-2.1157 -4.3703,-2.9939 -0.4847,-0.2432 -0.9683,-0.4632 -1.4467,-0.6596 0.6419,-0.1903 1.4038,-0.3454 2.2503,-0.4555 1.2266,0.2667 2.6177,0.4176 4.0923,0.4176 1.0716,0 2.0989,-0.0798 3.0513,-0.2256z"/> <path class="fil1" d="M116.907 214.779c1.8924,-3.5935 4.279,-6.0593 5.3295,-5.506 1.0506,0.5533 0.3679,3.9162 -1.5245,7.5098 -1.8924,3.5935 -4.2789,6.0592 -5.3295,5.5058 -1.0506,-0.553 -0.3678,-3.916 1.5245,-7.5096z"/> <path class="fil1" d="M107.687 219.799c-0.5704,1.2848 -2.2652,3.1357 -4.5433,4.8335 -2.1387,1.5937 -4.2596,2.6566 -5.665,2.929 0.5856,-0.3782 1.1745,-0.8027 1.7559,-1.271 1.8645,-1.5013 3.3087,-3.1741 4.1545,-4.6846 0.4094,-0.7313 0.6117,-1.3341 0.6475,-1.8526 0.6692,0.0675 1.3676,0.1034 2.0857,0.1034 0.5338,0 1.0565,-0.0198 1.5647,-0.0577z"/> <path class="fil1" d="M95.0438 221.271c1.6319,-1.216 3.2536,-2.1229 4.555,-2.6055 0.7646,0.3434 1.68,0.6265 2.7014,0.8304 -0.3592,1.2793 -2.1657,3.3445 -4.6864,5.2231 -3.2565,2.4267 -6.4726,3.6235 -7.1827,2.6709 -0.7093,-0.9519 1.3564,-3.6918 4.6127,-6.1189z"/> <path class="fil1" d="M113.655 211.363c1.4627,0 2.8253,0.1245 3.9709,0.3398 -0.5564,0.7572 -1.0898,1.6061 -1.5764,2.5265 -0.243,0.4597 -0.4647,0.9188 -0.6646,1.3738 -0.2944,0.0208 -0.5957,0.0363 -0.9026,0.0464 -0.2403,-1.0359 -1.1603,-2.0116 -3.0055,-2.5937 -1.1519,-0.3634 -2.5182,-0.6128 -4.0045,-0.7076 1.3097,-0.5929 3.5895,-0.9852 6.1827,-0.9852z"/> <path class="fil1" d="M120.653 220.928c0.2379,0.0132 0.4713,0.0298 0.7005,0.0495 0.2285,0.5854 0.7257,1.1182 1.6167,1.5627 0.8084,0.4032 1.8136,0.7339 2.9531,0.9659 -1.2493,0.252 -2.3382,0.623 -3.1851,1.0776 -0.2628,0.1411 -0.4861,0.2901 -0.6743,0.4463 -0.8606,0.1032 -1.8026,0.1605 -2.7904,0.1605 -0.795,0 -1.5602,-0.0373 -2.2773,-0.1056 -0.4869,-0.4256 -1.1612,-0.7969 -2.0496,-1.0772 -0.8673,-0.2736 -1.8559,-0.4828 -2.9259,-0.6098 -0.0667,-0.1164 -0.1022,-0.2357 -0.1022,-0.3576 0,-0.591 0.8165,-1.1264 2.1373,-1.5151 0.1025,1.1026 0.6093,1.7121 1.3073,2.0811 0.8205,0.4338 1.7857,0.4282 2.9828,-0.4291 0.7585,-0.5437 1.5468,-1.3093 2.3071,-2.2492z"/> <path class="fil1" d="M144.148 214.484c-0.104,0.1211 -0.243,0.2383 -0.4139,0.3503 -2.4734,0.056 -4.6804,0.5359 -6.2196,1.2705 -0.1655,0.0032 -0.3321,0.0052 -0.5004,0.0052 -1.551,0 -2.9894,-0.1407 -4.1758,-0.3804 0.6523,-0.5257 0.8882,-1.1282 0.8882,-1.8379 0,-0.6019 -0.2099,-1.2043 -0.6768,-1.7434 1.0883,-0.204 2.3723,-0.3265 3.7514,-0.3379 0.2588,0.5052 0.7381,0.9661 1.5243,1.3584 1.4364,0.7165 3.4943,1.2044 5.8226,1.3152z"/> <path class="fil1" d="M143.952 223.628c-0.8759,-0.1208 -1.8115,-0.1857 -2.7831,-0.1857 -2.4396,0 -4.6515,0.412 -6.2658,1.0801 -2.1016,-0.3786 -3.5034,-1.0571 -3.5034,-1.8316 0,-0.9786 2.2381,-1.8048 5.2989,-2.065 0.1971,0.1451 0.4248,0.2836 0.6869,0.4144 1.6416,0.8189 4.0952,1.3393 6.8361,1.3393 0.0709,0 0.1418,-0.0004 0.2122,-0.0011 -0.3067,0.3876 -0.4476,0.8084 -0.4818,1.2496z"/> <path class="fil1" d="M159.648 223.125l0.0005 0.0122c0,1.1874 -3.2937,2.1502 -7.3551,2.1502 -4.0613,0 -7.355,-0.9628 -7.355,-2.1502 0,-0.2799 0.1834,-0.5477 0.5165,-0.793 1.9032,-0.1107 3.6154,-0.4738 4.9407,-1.0068 0.2583,-0.1039 0.4898,-0.2111 0.6969,-0.3218 0.1506,-0.0072 0.3031,-0.0133 0.4565,-0.0178 0.2708,0.2846 0.6357,0.5494 1.115,0.7885 1.6416,0.8189 4.0952,1.3393 6.8361,1.3393l0.1479 -0.0006z"/> <path class="fil1" d="M129.534 224.2c0.3687,0 0.7307,0.0077 1.0848,0.023 0.2471,0.5401 0.7356,1.0323 1.5678,1.4475 0.2187,0.1091 0.4518,0.2126 0.6981,0.3106 -0.235,0.3875 -0.3258,0.8037 -0.3258,1.2368 0,0.3677 0.0714,0.7229 0.2398,1.059 -0.9839,0.1427 -2.092,0.2234 -3.2647,0.2234 -4.0613,0 -7.355,-0.9628 -7.355,-2.1502 0,-1.1873 3.2937,-2.1501 7.355,-2.1501z"/> <path class="fil1" d="M129.656 217.289c4.0614,0 7.3551,0.9628 7.3551,2.1501 0,0.0391 -0.004,0.0778 -0.011,0.1164 -2.0197,0.1969 -3.778,0.6825 -5.0175,1.3478 -0.372,0.1997 -0.6649,0.4156 -0.8913,0.6448 -0.4643,0.0269 -0.944,0.0412 -1.4353,0.0412 -4.0613,0 -7.355,-0.9628 -7.355,-2.1502 0,-1.1873 3.2937,-2.1501 7.355,-2.1501z"/> <path class="fil1" d="M156.799 227.175c0.6876,0.2544 1.1831,0.5557 1.4212,0.8844 -0.1073,-0.0016 -0.215,-0.0023 -0.3233,-0.0023 -2.8567,0 -5.4015,0.5652 -7.0398,1.4446 -0.6174,0.3314 -1.0157,0.7074 -1.2566,1.1148 -3.3796,-0.194 -5.9302,-1.0646 -5.9302,-2.1095 0,-0.7285 1.2406,-1.3727 3.137,-1.7616 1.5546,0.5498 3.5583,0.8815 5.7452,0.8815 1.5368,0 2.9828,-0.1639 4.2465,-0.4519z"/> <path class="fil1" d="M140.726 224.553c1.2281,0 2.3856,0.0878 3.4033,0.2434 0.2112,0.4896 0.6167,0.9409 1.2918,1.3325 -0.5006,0.1739 -0.9556,0.3703 -1.3564,0.5855 -1.079,0.5792 -1.4893,1.2946 -1.5591,2.0751 -0.57,0.0414 -1.1658,0.0638 -1.7796,0.0638 -4.0613,0 -7.355,-0.9628 -7.355,-2.1502 0,-1.1873 3.2937,-2.1501 7.355,-2.1501z"/> <path class="fil1" d="M168.033 219.011c3.639,1.8036 6.1627,4.1288 5.6352,5.1926 -0.5271,1.0639 -3.9058,0.464 -7.5448,-1.3396 -0.3654,-0.181 -0.719,-0.3677 -1.0599,-0.5574 0.2115,-0.0709 0.415,-0.1456 0.6103,-0.2241 1.7095,-0.6876 2.2509,-1.5174 2.2509,-2.5924 0,-0.1883 -0.0205,-0.3766 -0.0631,-0.5631 0.057,0.0278 0.1142,0.0556 0.1714,0.084z"/> <path class="fil1" d="M161.053 213.448c0.1858,0.1889 0.2859,0.3887 0.2859,0.5951 0,0.6008 -0.8433,1.1439 -2.2024,1.534 -1.6631,0.028 -3.2098,0.2477 -4.5191,0.6081 -0.2088,0.0052 -0.4201,0.0081 -0.6336,0.0081 -4.0613,0 -7.355,-0.9628 -7.355,-2.1502 0,-0.5755 0.7741,-1.0983 2.0341,-1.4843 0.1289,0.0802 0.2681,0.1582 0.419,0.2335 1.6416,0.8189 4.0952,1.3393 6.8361,1.3393 1.9106,0 3.6812,-0.253 5.135,-0.6836z"/> <path class="fil1" d="M144.241 215.613c0.4581,0 0.9061,0.0122 1.3411,0.0356 0.2415,0.5546 0.7332,1.0598 1.5843,1.4845 1.0908,0.5441 2.5399,0.9561 4.1937,1.1715 -0.8217,0.9252 -3.6977,1.6087 -7.1191,1.6087 -4.0613,0 -7.355,-0.9628 -7.355,-2.1502 0,-1.1873 3.2937,-2.1501 7.355,-2.1501z"/> <path class="fil1" d="M145.104 207.904c1.2171,0 2.3649,0.0864 3.3761,0.2394 -0.9987,0.617 -1.3202,1.372 -1.3202,2.187 0,0.588 0.1826,1.1442 0.6517,1.6404 -0.0899,0.0364 -0.1781,0.0734 -0.2643,0.1114 -0.7646,0.0788 -1.5866,0.1221 -2.4433,0.1221 -4.0613,0 -7.355,-0.9628 -7.355,-2.1502 0,-1.1873 3.2937,-2.1501 7.355,-2.1501z"/> <path class="fil1" d="M202.218 227.472c-0.8499,0.9129 -3.7053,1.5846 -7.0968,1.5846 -4.0613,0 -7.355,-0.9628 -7.355,-2.1502 0,-0.8642 1.7458,-1.6096 4.2618,-1.9512 0.2692,0.4672 0.736,0.8945 1.4716,1.2615 1.6416,0.8189 4.0952,1.3393 6.8361,1.3393 0.6458,0 1.2753,-0.0292 1.8823,-0.084z"/> <path class="fil1" d="M192.342 231.315c-1.349,0.4578 -3.3458,0.748 -5.5743,0.748 -4.0613,0 -7.355,-0.9628 -7.355,-2.1502 0,-1.1873 3.2937,-2.1501 7.355,-2.1501 0,0.9283 0.456,1.7787 1.7738,2.4362 1.0034,0.5006 2.3101,0.8893 3.8005,1.1161z"/> <path class="fil1" d="M195.684 213.669c3.2739,2.4034 5.3594,5.1286 4.6567,6.0857 -0.7027,0.9571 -3.9275,-0.2158 -7.2015,-2.6193 -3.2742,-2.4033 -5.3593,-5.1286 -4.6567,-6.0857 0.7026,-0.9572 3.9276,0.2159 7.2015,2.6193z"/> <path class="fil1" d="M111.485 221.914c-0.4307,0.3737 -0.6695,0.7853 -0.6695,1.2172 0,0.0548 0.0033,0.1088 0.01,0.1627 -0.483,-0.0304 -0.9806,-0.0461 -1.4889,-0.0461 -0.8771,0 -1.7227,0.0472 -2.5159,0.135 0.568,-0.6129 1.0475,-1.2142 1.4216,-1.7784 0.3589,-0.5412 0.6238,-1.0585 0.7822,-1.5329 0.2481,0.7474 1.1406,1.3865 2.4605,1.8425z"/> <path class="fil1" d="M125.071 210.918c4.0614,0 7.3551,0.9628 7.3551,2.1501 0,1.1874 -3.2937,2.1502 -7.3551,2.1502 -0.4094,0 -0.8106,-0.0102 -1.2018,-0.029 0.4382,-1.2081 0.7133,-2.359 0.8194,-3.3758 0.0342,-0.3275 0.0469,-0.624 0.0393,-0.8932 0.1138,-0.0015 0.228,-0.0023 0.3431,-0.0023z"/> <path class="fil1" d="M106.062 213.319c4.0508,0.2934 7.2664,1.4917 7.1806,2.6759 -0.0858,1.1843 -3.4405,1.9066 -7.4911,1.6132 -4.0508,-0.2934 -7.2664,-1.4917 -7.1806,-2.676 0.0858,-1.1843 3.4405,-1.9065 7.4911,-1.6131z"/> <path class="fil1" d="M109.729 224.255c4.0614,0 7.3551,0.9628 7.3551,2.1501 0,0.1151 -0.0315,0.2281 -0.0911,0.3383 -1.9413,0.208 -3.6294,0.684 -4.8305,1.3287 -0.2472,0.1327 -0.4595,0.2723 -0.6405,0.4185 -0.5741,0.0421 -1.1744,0.0647 -1.793,0.0647 -3.4064,0 -6.272,-0.6775 -7.1079,-1.5966 0.5926,-0.3816 1.1886,-0.8107 1.777,-1.2846 0.425,-0.3422 0.8283,-0.6935 1.2075,-1.0496 1.1762,-0.2333 2.5953,-0.3695 4.1234,-0.3695z"/> <path class="fil1" d="M118.98 227.583c0.807,0 1.583,0.0379 2.3096,0.1081 0.0682,0.2019 0.1667,0.3976 0.3009,0.5863 -0.6129,0.196 -1.1638,0.4248 -1.6388,0.6797 -1.1956,0.6418 -1.5701,1.4513 -1.5701,2.3307 0,0.2007 0.0216,0.3976 0.0683,0.5898 -3.8138,-0.0795 -6.8249,-1.0093 -6.8249,-2.1445 0,-1.1873 3.2937,-2.1501 7.355,-2.1501z"/> <path class="fil1" d="M131.393 230.628c-0.8053,0.5845 -1.0728,1.2782 -1.0728,2.0217 0,0.0673 0.0022,0.134 0.0072,0.2005 -1.0543,0.1706 -2.2665,0.2682 -3.5568,0.2682 -4.0613,0 -7.355,-0.9628 -7.355,-2.1502 0,-0.7399 1.2796,-1.3928 3.2267,-1.7796 0.0946,0.055 0.1942,0.109 0.2996,0.1616 1.6416,0.8189 4.0952,1.3393 6.8361,1.3393 0.5515,0 1.0911,-0.0212 1.615,-0.0615z"/> <path class="fil1" d="M143.349 230.88c0.2439,0.214 0.5476,0.4154 0.9198,0.6011 0.5456,0.2722 1.1807,0.5109 1.8864,0.709 -0.3926,1.0793 -3.5174,1.9205 -7.3131,1.9205 -4.0613,0 -7.355,-0.9628 -7.355,-2.1502 0,-0.8138 1.5476,-1.5223 3.8288,-1.8874 1.5692,0.5729 3.6152,0.9201 5.8529,0.9201 0.752,0 1.4823,-0.0394 2.1802,-0.1131z"/> <path class="fil1" d="M157.923 229.005c4.0614,0 7.3551,0.9628 7.3551,2.1501 0,1.1874 -3.2937,2.1502 -7.3551,2.1502 -4.0613,0 -7.355,-0.9628 -7.355,-2.1502 0,-1.1873 3.2937,-2.1501 7.355,-2.1501z"/> <path class="fil1" d="M170.881 228.582c4.0614,0 7.3551,0.9628 7.3551,2.1501 0,1.1874 -3.2937,2.1502 -7.3551,2.1502 -1.7373,0 -3.3333,-0.1766 -4.592,-0.4711 0.023,-0.1414 0.0334,-0.2871 0.0334,-0.4379 0,-0.885 -0.4542,-1.771 -1.5108,-2.4557 1.3255,-0.565 3.5494,-0.9356 6.0694,-0.9356z"/> <path class="fil1" d="M176.127 208.735c-1.0457,0.8151 -3.7354,1.3956 -6.8884,1.3956 -1.9731,0 -3.7649,-0.2276 -5.0859,-0.5974 -0.0706,-0.1716 -0.1612,-0.3405 -0.2736,-0.5046 0.7696,-0.3229 1.2899,-0.6773 1.6238,-1.073 1.6406,-0.0236 3.1693,-0.2339 4.4708,-0.5816l0.0684 0.035c1.4901,0.7433 3.6491,1.2405 6.0849,1.326z"/> <path class="fil1" d="M164.321 210.852c1.0268,0.0068 2.0013,0.075 2.8828,0.1928 -0.2863,0.1175 -0.554,0.2431 -0.8012,0.3758 -1.1956,0.6418 -1.5701,1.4513 -1.5701,2.3307 0,0.4855 0.1246,0.9494 0.4321,1.3758 -0.3631,0.0161 -0.7346,0.0247 -1.1131,0.0247 -0.6269,0 -1.2351,-0.0232 -1.816,-0.0663 0.0044,-0.0655 0.0064,-0.1317 0.0064,-0.199 0,-0.5715 -0.1894,-1.1435 -0.6081,-1.6613 0.1224,-0.0442 0.2418,-0.0895 0.3583,-0.1364 1.5161,-0.6098 2.1131,-1.3315 2.2289,-2.2368z"/> <path class="fil1" d="M159.523 216.48c4.0614,0 7.3551,0.9628 7.3551,2.1501 0,1.1874 -3.2937,2.1502 -7.3551,2.1502 -4.0613,0 -7.355,-0.9628 -7.355,-2.1502 0,-1.1873 3.2937,-2.1501 7.355,-2.1501z"/> <path class="fil1" d="M157.695 203.477c4.0614,0 7.3551,0.9628 7.3551,2.1501 0,0.7663 -1.3725,1.4388 -3.4373,1.8196 -0.1102,-0.0402 -0.2235,-0.0789 -0.3411,-0.116 -1.493,-0.471 -3.3464,-0.7501 -5.3539,-0.7501 -0.2732,0 -0.5434,0.005 -0.8104,0.0151 0.003,-0.0542 0.0043,-0.1089 0.0043,-0.1644 0,-0.9296 -0.5011,-1.8602 -1.6752,-2.5576 1.2019,-0.25 2.6714,-0.3967 4.2585,-0.3967z"/> <path class="fil1" d="M176.708 202.155c4.0614,0 7.3551,0.9628 7.3551,2.1501 0,1.1874 -3.2937,2.1502 -7.3551,2.1502 -4.0613,0 -7.355,-0.9628 -7.355,-2.1502 0,-1.1873 3.2937,-2.1501 7.355,-2.1501z"/> <path class="fil1" d="M169.905 201.943c0.3242,0.0782 0.6246,0.1641 0.8987,0.2572 -0.3487,0.1361 -0.6716,0.2838 -0.9654,0.4415 -1.1956,0.6418 -1.5701,1.4513 -1.5701,2.3307 0,0.1971 0.0209,0.3903 0.0658,0.5793 -0.7043,0.0961 -1.4693,0.1606 -2.2735,0.1871 -0.3047,-0.9641 -1.222,-1.8574 -2.954,-2.4038 -1.1318,-0.3571 -2.4707,-0.6039 -3.9268,-0.7024 0.4814,-0.2001 0.8664,-0.4123 1.1699,-0.639 0.0781,-0.0203 0.158,-0.0402 0.239,-0.0595 1.3608,0.3526 2.962,0.5562 4.6757,0.5562 1.6991,0 3.2874,-0.2003 4.6407,-0.5473z"/> <path class="fil1" d="M143.604 194.903c3.1582,0 5.8517,0.582 6.8937,1.3992 -1.855,0.2188 -3.4668,0.6838 -4.6254,1.3057 -0.8475,0.4549 -1.2826,0.9938 -1.464,1.5824 -0.2642,0.0084 -0.5324,0.013 -0.8043,0.013 -1.6366,0 -3.148,-0.1566 -4.37,-0.421 0.1281,-0.2943 0.1822,-0.6095 0.1822,-0.9495 0,-0.795 -0.3663,-1.591 -1.2069,-2.2409 1.3434,-0.4238 3.263,-0.6889 5.3947,-0.6889z"/> <path class="fil1" d="M152.803 197.308c4.0614,0 7.3551,0.9628 7.3551,2.1501 0,1.1874 -3.2937,2.1502 -7.3551,2.1502 -4.0613,0 -7.355,-0.9628 -7.355,-2.1502 0,-1.1873 3.2937,-2.1501 7.355,-2.1501z"/> <path class="fil1" d="M164.993 195.837c4.0614,0 7.3551,0.9628 7.3551,2.1501 0,1.1874 -3.2937,2.1502 -7.3551,2.1502 -1.3351,0 -2.5868,-0.1043 -3.6663,-0.2862 -0.0999,-1.1179 -0.9475,-2.2096 -2.8425,-2.8658 1.2324,-0.6829 3.6846,-1.1483 6.5088,-1.1483z"/> <path class="fil1" d="M157.449 191.637c4.0614,0 7.3551,0.9628 7.3551,2.1501 0,0.4561 -0.4865,0.8789 -1.3153,1.2267 -1.5394,0.1307 -2.9358,0.4282 -4.0791,0.8458 -0.6243,0.0504 -1.2816,0.0777 -1.9607,0.0777 -4.0613,0 -7.355,-0.9628 -7.355,-2.1502 0,-1.1873 3.2937,-2.1501 7.355,-2.1501z"/> <path class="fil1" d="M147.474 189.826c2.7979,0 5.231,0.4567 6.4744,1.1292 -1.3475,0.2519 -2.52,0.64 -3.4194,1.1228 -1.0456,0.5613 -1.4634,1.2507 -1.5517,2.0031 -0.4854,0.0295 -0.988,0.0452 -1.5033,0.0452 -4.0613,0 -7.355,-0.9628 -7.355,-2.1502 0,-1.1873 3.2937,-2.1501 7.355,-2.1501z"/> <path class="fil1" d="M117.039 206.494c2.9021,0 5.4114,0.4914 6.608,1.2052 -0.1244,0.222 -0.2033,0.4531 -0.2463,0.691 -1.039,-0.3972 -2.4089,-0.1289 -3.9139,1.2496 -0.364,0.3335 -0.7296,0.7072 -1.0908,1.1176 -0.44,0.024 -0.8933,0.0369 -1.357,0.0369 -4.0613,0 -7.355,-0.9628 -7.355,-2.1502 0,-1.1873 3.2937,-2.1501 7.355,-2.1501z"/> <path class="fil1" d="M138.046 200.6c3.8783,0 7.0562,0.8777 7.3349,1.9907 -1.7273,0.0902 -3.2801,0.3656 -4.4716,0.7632l0.0004 0.0007c-1.17,0.3902 -2.0187,0.92 -2.4016,1.5412 -0.1529,0.0028 -0.3068,0.0045 -0.4621,0.0045 -2.6244,0 -4.9279,-0.4023 -6.2294,-1.0072 0.0558,-0.1526 0.0846,-0.3095 0.0846,-0.4707 0,-0.5073 -0.2853,-0.9752 -0.7979,-1.3833 1.0042,-0.8381 3.7334,-1.4391 6.9427,-1.4391z"/> <path class="fil1" d="M130.736 195.008c4.0614,0 7.3551,0.9628 7.3551,2.1501 0,1.1874 -3.2937,2.1502 -7.3551,2.1502 -4.0613,0 -7.355,-0.9628 -7.355,-2.1502 0,-1.1873 3.2937,-2.1501 7.355,-2.1501z"/> <path class="fil1" d="M123.529 201.275c4.0614,0 7.3551,0.9628 7.3551,2.1501 0,1.1874 -3.2937,2.1502 -7.3551,2.1502 -4.0613,0 -7.355,-0.9628 -7.355,-2.1502 0,-1.1873 3.2937,-2.1501 7.355,-2.1501z"/> <path class="fil1" d="M131.996 206.067c3.7119,0 6.7818,0.804 7.2828,1.8488 -0.447,0.1616 -0.8557,0.3417 -1.2197,0.5371 -0.7733,0.4151 -1.2033,0.9001 -1.4104,1.4291 -1.2677,0.3031 -2.8875,0.4853 -4.6527,0.4853 -4.0613,0 -7.355,-0.9628 -7.355,-2.1502 0,-1.1873 3.2937,-2.1501 7.355,-2.1501z"/> <path class="fil1" d="M53.7069 186.871c-1.4169,-2.8445 -2.4859,-5.5746 -3.2624,-8.041 -4.0242,-12.7826 -2.6007,-32.4029 10.4013,-47.9691 7.5443,-9.0322 19.5752,-15.7586 35.5259,-20.8738 1.2653,-0.0094 2.5279,-0.0112 3.7872,-0.0048 -4.1909,5.1988 -9.7614,8.5001 -15.5083,11.5492 6.9038,-2.2564 13.0842,-5.5866 17.504,-11.5319 3.136,0.0385 6.2508,0.1322 9.3391,0.2953 -6.4823,5.0849 -10.9343,10.9309 -13.355,17.5389 3.9957,-7.8543 9.8069,-13.2874 16.86,-17.0647 1.1552,2.1928 1.346,4.799 1.399,7.464 0.7217,-2.3101 1.1308,-4.7421 0.5156,-7.5756 6.7506,0.5526 13.3551,1.4873 19.7532,2.9621 2.4672,4.9575 5.6058,9.6503 10.4181,13.6841 -3.5639,-4.2819 -6.4032,-8.7247 -8.7303,-13.2813 1.003,0.2477 2.0005,0.5093 2.9928,0.7851 2.974,3.7231 5.5591,7.5678 7.5045,11.6127 -1.3093,-3.7725 -3.31,-7.5147 -6.1327,-11.2213 1.2286,0.3599 2.4484,0.7426 3.6589,1.1494 24.951,15.2406 27.4947,47.0027 24.2613,62.6504 -0.9669,4.679 -2.7331,9.321 -5.2764,13.7035 -0.526,-0.596 -1.3867,-0.9984 -2.5185,-1.343 -1.7927,-0.5458 -4.3552,-0.8376 -7.6564,-0.5784 -3.6203,-2.765 -10.1407,-1.9883 -12.7818,-1.2861 -0.1956,0.052 -0.39,0.1068 -0.5806,0.1647 -0.6039,-0.4477 -1.2497,-0.8795 -1.9429,-1.2928 2.8796,-1.1866 1.4857,-3.9387 0.3919,-4.7404 -1.9437,-1.4247 -6.6249,-2.1521 -11.8117,-1.0842 -0.2068,-0.1249 -0.4027,-0.2223 -0.5943,-0.307 2.4906,-0.6617 2.4691,-3.2169 1.5271,-4.3003 -0.942,-1.0835 -3.1143,-2.1122 -7.1797,-2.2003 0.2659,-2.0321 -0.909,-2.9012 -3.0727,-3.5599 -1.7927,-0.5458 -4.3552,-0.8376 -7.6564,-0.5784 -3.6203,-2.765 -10.1407,-1.9883 -12.7818,-1.2861 -2.3304,0.6195 -4.4516,1.5774 -2.8388,4.7584 -0.9712,0.2172 -1.8292,0.4919 -2.6098,0.8063 -4.7074,-1.6778 -9.8273,-0.8913 -11.969,-0.1449 -2.5045,0.8727 -3.901,2.7461 -1.0183,5.412 -3.4895,0.0007 -6.1035,0.4708 -7.6304,1.4556 -1.1618,0.7493 -1.6249,2.0227 -0.7252,3.8078 -2.3667,0.217 -4.2368,0.6229 -5.4392,1.2819 -3.6916,-2.3592 -9.7694,-1.6199 -12.2964,-0.948 -0.1584,0.0421 -0.3156,0.0861 -0.4709,0.1319z"/> <path class="fil1" d="M129.886 191.609c1.2364,0 2.4011,0.0891 3.424,0.2468 0.6258,0.9346 1.4922,1.9146 2.5491,2.8577 -4.3836,-1.2103 -8.8949,-0.4873 -10.871,0.2014 -0.2239,0.078 -0.4385,0.1639 -0.6425,0.2578 -1.1296,-0.378 -1.8146,-0.8723 -1.8146,-1.4136 0,-1.1873 3.2937,-2.1501 7.355,-2.1501z"/> <path class="fil1" d="M139.337 194.306c-0.177,-0.123 -0.3549,-0.2495 -0.5325,-0.3799 -2.0611,-1.5129 -3.6505,-3.1531 -4.3704,-4.3998 1.5903,-0.0943 3.0463,-0.3651 4.2536,-0.7638 0.667,0.3603 1.3692,0.7911 2.0804,1.283 -1.5132,0.6791 -2.4142,1.8138 -1.2006,4.2075 -0.0776,0.0174 -0.1543,0.0349 -0.2305,0.053z"/> <path class="fil1" d="M115.304 204.833c-1.1511,0.7482 -3.7236,1.2697 -6.7115,1.2697 -4.0613,0 -7.355,-0.9628 -7.355,-2.1502 0,-0.2799 0.1834,-0.5477 0.5165,-0.793 1.9032,-0.1107 3.6154,-0.4738 4.9407,-1.0068 0.2583,-0.1039 0.4898,-0.2111 0.6969,-0.3218 0.1506,-0.0072 0.3031,-0.0133 0.4565,-0.0178 0.2708,0.2846 0.6357,0.5494 1.115,0.7885 1.5095,0.753 3.7058,1.2537 6.1805,1.3294 0.0081,0.2809 0.06,0.5815 0.1604,0.902z"/> <path class="fil1" d="M115.822 197.295c3.0747,0 5.7086,0.5516 6.8074,1.3349 0.1303,0.2724 0.3102,0.5565 0.546,0.8523 -0.0182,0.3126 -0.2647,0.6088 -0.6929,0.8753 -2.5214,0.1096 -4.4888,0.5101 -5.8016,1.2229 -0.2819,0.0096 -0.5682,0.0149 -0.8589,0.0149 -4.0613,0 -7.355,-0.9628 -7.355,-2.1502 0,-1.1873 3.2937,-2.1501 7.355,-2.1501z"/> <path class="fil1" d="M108.63 209.692c-0.2802,0.0941 -0.547,0.1953 -0.7984,0.3026 -1.0923,-0.7315 -2.543,-1.6029 -3.9579,-2.1905 1.3887,0.3932 3.0524,0.6266 4.8436,0.6378 -0.1408,0.3937 -0.1807,0.8232 -0.0873,1.2501z"/> <path class="fil1" d="M82.6526 225.826c3.2307,0 5.9751,0.6088 6.9629,1.4557 -0.0271,0.4252 0.0298,0.8274 0.2064,1.1759 -0.7482,0.9556 -3.6743,1.6687 -7.1693,1.6687 -1.7373,0 -3.3333,-0.1766 -4.592,-0.4711 0.023,-0.1414 0.0334,-0.2871 0.0334,-0.4379 0,-0.885 -0.4542,-1.771 -1.5108,-2.4557 1.3255,-0.565 3.5494,-0.9356 6.0694,-0.9356z"/> <path class="fil1" d="M96.8219 206.889c0.7046,0.5173 1.3537,1.0491 1.9323,1.5754 -0.4653,0.7341 -0.5395,1.6551 0.1094,2.8845 0.2815,0.5329 0.6527,1.0905 1.1035,1.6558 -0.1359,0.0482 -0.2665,0.0985 -0.3912,0.1512 -1.3942,-0.3631 -3.3373,-1.3605 -5.2988,-2.8005 -2.0611,-1.5129 -3.6505,-3.1531 -4.3704,-4.3998 1.5903,-0.0943 3.0463,-0.3651 4.2536,-0.7638 0.8483,0.4582 1.7529,1.0301 2.6616,1.6972z"/> <path class="fil1" d="M107.456 210.914c0.0822,0.0603 0.1634,0.1209 0.244,0.1816 -0.8431,0.272 -1.5771,0.6787 -2.1819,1.2454 -1.065,-0.0309 -2.045,0.0064 -2.9253,0.1035 -1.8634,-1.7854 -2.8551,-3.4458 -2.3383,-4.1498 0.7026,-0.9572 3.9276,0.2159 7.2015,2.6193z"/> <path class="fil1" d="M96.3964 219.165c-2.3733,-0.3567 -3.9977,-1.0794 -3.9977,-1.9132 0,-0.9753 2.2229,-1.7992 5.2677,-2.0623 -0.1473,0.8654 0.1375,1.8876 1.0527,2.6309 -0.8086,0.4364 -1.5857,0.8835 -2.3227,1.3446z"/> <path class="fil1" d="M90.5233 220.174c0.8562,0 1.6778,0.0428 2.4421,0.1214 0.1629,0.1094 0.3448,0.2148 0.5467,0.3155 0.1564,0.078 0.3198,0.1529 0.4905,0.2253 -1.2876,1.0163 -2.3627,2.1062 -3.1483,3.2962 -0.0716,0.1084 -0.1438,0.2225 -0.2154,0.3414l-0.1156 0.0005c-2.1464,0 -4.0779,-0.2692 -5.4226,-0.6981 0.4556,-0.2279 0.7653,-0.5776 0.9921,-1.0298 0.2916,-0.581 0.3642,-1.2724 0.1297,-2.0287 1.0467,-0.0961 2.0249,-0.2691 2.8997,-0.5047 0.4537,-0.0256 0.9219,-0.039 1.4011,-0.039z"/> <path class="fil1" d="M102.057 229.045c-1.0449,0.1668 -2.2432,0.2619 -3.5173,0.2619 -1.4114,0 -2.7296,-0.1166 -3.8496,-0.3182 0.3528,-0.1442 0.7169,-0.311 1.0915,-0.4978 0.8969,0.8498 2.5585,0.7563 5.3191,-0.6927 0.1493,0.4501 0.4498,0.8708 0.9563,1.2468z"/> <path class="fil1" d="M146.527 203.527c4.0614,0 7.3551,0.9628 7.3551,2.1501 0,0.374 -0.3272,0.7252 -0.9019,1.0315 -1.1498,0.1363 -2.1832,0.3579 -3.0333,0.6415 -0.0989,0.033 -0.1956,0.0668 -0.2898,0.1018 -1.3166,-0.3091 -2.9136,-0.4905 -4.6297,-0.4905 -1.2727,0 -2.4795,0.0997 -3.5551,0.2772 -1.4163,-0.3919 -2.3003,-0.9465 -2.3003,-1.5615 0,-1.1873 3.2937,-2.1501 7.355,-2.1501z"/> <path class="fil1" d="M155.677 207.5c4.0614,0 7.3551,0.9628 7.3551,2.1501 0,1.1874 -3.2937,2.1502 -7.3551,2.1502 -4.0613,0 -7.355,-0.9628 -7.355,-2.1502 0,-1.1873 3.2937,-2.1501 7.355,-2.1501z"/> <path class="fil1" d="M110.743 71.0542c-0.8309,1.3866 -0.1315,4.4741 -0.1668,6.7248 -0.0376,2.3957 -0.4081,4.6428 -2.2481,6.2332 4.7971,1.3374 7.3,-0.5197 7.9717,-2.2182 0.8916,-2.2543 0.1383,-7.4238 -5.5568,-10.7398z"/> <path class="fil1" d="M139.604 71.7021c-1.9773,3.1471 -4.7672,5.5753 -7.4214,4.4764 1.9322,-2.2417 4.4697,-3.6456 7.4214,-4.4764z"/> <path class="fil1" d="M155.566 82.1274c-1.3587,-1.3707 -3.6115,-1.8467 -6.5379,-1.6492 1.3188,1.3109 3.1794,2.1424 6.5379,1.6492z"/> <path class="fil1" d="M85.9464 80.1248c7.4936,5.5782 13.5783,12.1083 15.2551,21.6163 1.2123,-0.4038 2.4372,-0.7859 3.6756,-1.1444 -0.7597,-6.5907 -3.9454,-12.1926 -8.7999,-17.1146 5.2635,3.7885 9.3586,8.7049 10.2613,16.7042 1.4823,-0.4031 2.984,-0.7722 4.5076,-1.1036 0.3285,-4.2134 -0.9627,-8.2156 -3.4601,-12.0666 3.3572,2.9928 5.1394,6.8856 5.3474,11.6781 1.0885,-0.2118 2.1878,-0.4046 3.2993,-0.5766 0.3953,-3.0366 0.6864,-6.2006 0.954,-9.3934 0.3281,3.0252 0.7004,6.0417 0.3636,9.2001 1.504,-0.2089 3.0294,-0.3802 4.5784,-0.5112 1.3185,-9.094 5.647,-12.9195 10.6076,-15.6391 -4.8794,4.7508 -8.8241,9.6836 -8.3408,15.4776 3.3528,-0.1944 6.8152,-0.1987 10.4023,0.0131 3.1049,-8.7307 8.7978,-12.5016 15.6674,-14.0182 -2.3486,-1.1582 -3.3852,-2.6485 -3.7893,-4.1738 -0.5792,-2.1863 0.1409,-4.4445 0.1583,-5.8994 0.0104,-0.8729 -0.232,-1.4569 -1.1598,-1.5623 -1.0361,-0.1178 -2.4707,-0.1884 -3.9142,0.4165 -2.0108,0.8427 -1.7065,3.7205 -5.8801,5.6674 -2.0193,0.9421 -3.3796,1.3577 -5.3129,0.035 -1.8293,-1.2515 -2.3935,-3.2474 -2.6599,-5.3918 -0.5172,-4.1631 -2.8541,-10.0492 -7.7167,-9.9422 -4.0499,0.9251 -7.1203,2.9446 -9.8363,5.3599 0.5802,2.5412 4.6357,3.819 5.9383,5.7541 2.4867,3.6943 2.7625,7.2128 2.291,9.1918 -0.6339,2.6608 -4.4759,5.0358 -11.0565,2.783 -5.8166,-1.6881 -4.5265,-8.7344 -6.8092,-8.645 -1.5121,0.0592 -1.6018,3.3452 -4.5585,5.2877 -2.9679,1.5707 -6.3691,-2.4621 -10.013,-2.0026z"/> <path class="fil0" d="M157.628 182.375c5.97,-12.4081 5.0273,-26.5442 0.9424,-41.4656 7.3565,11.0724 8.1101,35.4691 -0.9424,41.4656z"/> <path class="fil1" d="M94.2513 109.104c1.2829,-0.0856 2.5626,-0.1564 3.8396,-0.2126l0.3173 -0.0134c-0.0318,-0.5776 -0.0845,-1.1444 -0.1623,-1.6979 -0.1176,-0.8364 -0.2922,-1.6432 -0.5361,-2.4144 -0.0828,0.0317 -0.1641,0.0636 -0.2447,0.0964 -2.1923,0.8909 -3.4814,2.2303 -3.2138,4.2419z"/> <path class="fil1" d="M99.1064 108.85c0.9035,-0.0343 1.8055,-0.0611 2.706,-0.0804 -0.0323,-0.5402 -0.0831,-1.0707 -0.1561,-1.5896 -0.1608,-1.144 -0.4283,-2.2332 -0.8342,-3.2507 -0.883,0.1663 -1.7068,0.366 -2.4529,0.6059 0.2595,0.8158 0.4446,1.6675 0.5685,2.549 0.0811,0.5767 0.1358,1.166 0.1687,1.7658z"/> <path class="fil1" d="M102.511 108.756c0.9207,-0.0159 1.8396,-0.0237 2.7571,-0.0236 -0.0301,-0.6467 -0.0856,-1.2803 -0.1724,-1.8973 -0.1671,-1.189 -0.4494,-2.3186 -0.8827,-3.3702 -0.9333,0.0895 -1.8351,0.2012 -2.6897,0.3412 0.3982,1.0329 0.6631,2.1303 0.8244,3.2779 0.0769,0.5466 0.13,1.1046 0.1633,1.672z"/> <path class="fil1" d="M105.968 108.734c0.8982,0.004 1.7944,0.0158 2.6895,0.0352 -0.0276,-0.7107 -0.0853,-1.4057 -0.1803,-2.0811 -0.1715,-1.2198 -0.4641,-2.3771 -0.9167,-3.4518 -0.8883,0.04 -1.7657,0.0932 -2.6209,0.1638 0.4116,1.0508 0.6839,2.1688 0.8484,3.3392 0.0914,0.6498 0.1493,1.3158 0.18,1.9947z"/> <path class="fil1" d="M109.357 108.786c0.9093,0.0238 1.8167,0.0556 2.7227,0.0956 -0.02,-0.8451 -0.0804,-1.6691 -0.1924,-2.4659 -0.1622,-1.1538 -0.4329,-2.2516 -0.8447,-3.2766 -0.9135,0.0125 -1.8311,0.0334 -2.741,0.067 0.422,1.0644 0.7001,2.1985 0.8671,3.3864 0.1003,0.7131 0.1604,1.4456 0.1883,2.1935z"/> <path class="fil1" d="M112.779 108.914c0.9064,0.0441 1.8112,0.0966 2.7143,0.157 -0.0158,-0.9012 -0.0767,-1.779 -0.1958,-2.6261 -0.1646,-1.1705 -0.4407,-2.2834 -0.8626,-3.3211 -0.8674,-0.0022 -1.7533,-0.0014 -2.6468,0.0067 0.3795,1.007 0.6341,2.0744 0.7908,3.1893 0.1182,0.8401 0.1807,1.7069 0.2001,2.5942z"/> <path class="fil1" d="M116.193 109.119c0.9067,0.065 1.8118,0.1384 2.7151,0.2202 -0.0017,-1.0577 -0.0614,-2.0848 -0.2,-3.0707 -0.1544,-1.0981 -0.4069,-2.1456 -0.7859,-3.1278 -0.8746,-0.0038 -1.7919,-0.0105 -2.7362,-0.0145 0.3865,1.0168 0.645,2.0955 0.8035,3.2228 0.126,0.8955 0.1888,1.8212 0.2035,2.77z"/> <path class="fil1" d="M119.607 109.404c0.6449,0.0616 1.2893,0.1279 1.9324,0.1982 0.2599,0.0284 0.5196,0.0574 0.7792,0.0873 0.0031,-1.1031 -0.0555,-2.1734 -0.1998,-3.1993 -0.1645,-1.1699 -0.4405,-2.2822 -0.862,-3.3195 -0.6962,-0.0184 -1.3865,-0.0277 -2.0711,-0.0276l-0.5174 -0.0003c0.347,0.96 0.5834,1.9735 0.7319,3.0297 0.1463,1.0402 0.2074,2.1209 0.2068,3.2315z"/> <path class="fil1" d="M123.017 109.772c0.9057,0.1087 1.8095,0.226 2.7117,0.3521 -0.0061,-1.0131 -0.0664,-1.9976 -0.1995,-2.9441 -0.1937,-1.3781 -0.5421,-2.6765 -1.1012,-3.866 -0.8114,-0.0513 -1.6155,-0.0913 -2.4123,-0.1195 0.3818,1.0102 0.6376,2.0813 0.7949,3.2003 0.1527,1.0857 0.2126,2.2154 0.2064,3.3772z"/> <path class="fil1" d="M126.428 110.223c0.9051,0.1312 1.8083,0.2713 2.7098,0.4203 0.0138,-1.1966 -0.0422,-2.3562 -0.198,-3.4639 -0.1781,-1.2666 -0.4867,-2.4658 -0.9695,-3.5752 -0.9262,-0.0928 -1.8439,-0.1723 -2.7527,-0.2375 0.4995,1.159 0.8192,2.4052 1.0036,3.7169 0.1423,1.0114 0.2041,2.0611 0.2068,3.1394z"/> <path class="fil1" d="M129.835 110.761c0.902,0.1539 1.802,0.3168 2.7003,0.4888 0.0427,-1.4114 -0.0032,-2.776 -0.1851,-4.0697 -0.1558,-1.1081 -0.4116,-2.1648 -0.7964,-3.1547 -0.9394,-0.1258 -1.8707,-0.2389 -2.7936,-0.3385 0.4244,1.0675 0.7038,2.2054 0.8714,3.3974 0.1658,1.1788 0.2224,2.4095 0.2034,3.6767z"/> <path class="fil1" d="M133.23 111.384c0.9082,0.1789 1.8144,0.367 2.7189,0.5646 0.0364,-1.3674 -0.012,-2.6901 -0.1886,-3.9459 -0.1737,-1.2356 -0.4717,-2.4072 -0.9344,-3.4936 -0.8354,-0.1351 -1.6646,-0.2609 -2.4879,-0.3767 0.3318,0.9367 0.5593,1.9239 0.7037,2.9513 0.1929,1.3712 0.2381,2.813 0.1883,4.3003z"/> <path class="fil1" d="M136.644 112.103c0.9052,0.2029 1.8085,0.4152 2.7098,0.637 0.0469,-1.4394 0.0025,-2.8309 -0.1828,-4.1486 -0.1732,-1.2319 -0.47,-2.4002 -0.9303,-3.4839 -0.8754,-0.1647 -1.7447,-0.3197 -2.6077,-0.4648 0.3954,1.029 0.6588,2.1221 0.8194,3.2648 0.1883,1.339 0.2359,2.7452 0.1916,4.1955z"/> <path class="fil1" d="M140.047 112.912c0.9048,0.2279 1.8076,0.4656 2.7084,0.713 0.0601,-1.5256 0.0218,-2.9992 -0.1739,-4.3908 -0.1708,-1.2152 -0.462,-2.3684 -0.9117,-3.4398 -0.8772,-0.1862 -1.7484,-0.3637 -2.614,-0.5316 0.3885,1.0196 0.6481,2.1015 0.8071,3.2323 0.1979,1.407 0.2403,2.8883 0.1841,4.4169z"/> <path class="fil1" d="M143.447 113.817c0.9116,0.2558 1.8213,0.5216 2.7289,0.7974 0.0449,-1.4266 -0.0001,-2.8058 -0.1839,-4.1126 -0.2013,-1.4319 -0.5695,-2.7778 -1.1676,-4.0048 -0.7822,-0.1821 -1.56,-0.3574 -2.3336,-0.526 0.375,1.0006 0.627,2.0607 0.7826,3.1675 0.2092,1.4872 0.2447,3.0573 0.1736,4.6785z"/> <path class="fil1" d="M146.886 114.156c4.035,-3.2351 4.1803,-5.8026 -1.1881,-7.4254 0.4893,1.1473 0.8037,2.3793 0.9859,3.6754 0.169,1.2015 0.2245,2.457 0.2022,3.75z"/> <path class="fil1" d="M140.076 98.7372c-0.5191,-0.0359 -1.0347,-0.0686 -1.5475,-0.0987 -0.3024,1.1007 -0.4442,2.2607 -0.4635,3.4657 -0.0081,0.5102 0.0059,1.0284 0.0386,1.5539 1.292,0.2553 2.5719,0.5306 3.8399,0.8255 -0.0763,-0.8107 -0.113,-1.608 -0.1005,-2.3891 0.0145,-0.9095 0.096,-1.7964 0.2598,-2.6552 -0.5989,-0.256 -1.2722,-0.4905 -2.0268,-0.7021z"/> <path class="fil1" d="M137.816 98.5982c-1.2555,-0.0679 -2.4919,-0.1179 -3.7099,-0.151 -0.3401,1.1573 -0.4975,2.382 -0.5179,3.657 -0.004,0.2493 -0.0024,0.5005 0.0037,0.7536 1.2796,0.2015 2.5472,0.4224 3.8034,0.6625 -0.026,-0.4808 -0.0366,-0.9562 -0.0291,-1.4258 0.0193,-1.2098 0.1573,-2.3793 0.4498,-3.4963z"/> <path class="fil1" d="M133.385 98.4293c-1.2681,-0.0276 -2.5155,-0.036 -3.7424,-0.0256 -0.3489,1.1701 -0.5101,2.4095 -0.5308,3.7005l-0.0014 0.1349c1.2717,0.1511 2.5316,0.3214 3.7804,0.5103 -0.0039,-0.2196 -0.0045,-0.4378 -0.001,-0.6549 0.0203,-1.2709 0.1714,-2.4974 0.4952,-3.6652z"/> <path class="fil1" d="M128.913 98.4123c-1.2846,0.0189 -2.5461,0.0593 -3.7849,0.1204 -0.2958,1.0372 -0.4466,2.1275 -0.4851,3.2594 1.2679,0.1034 2.524,0.2256 3.7692,0.3662l0.0008 -0.0638c0.0204,-1.277 0.173,-2.5092 0.5,-3.6822z"/> <path class="fil1" d="M124.394 98.5715c-1.3026,0.0736 -2.5795,0.1708 -3.8307,0.2916 -0.2152,0.8499 -0.3373,1.734 -0.384,2.646 1.267,0.0575 2.5226,0.1338 3.7673,0.2281 0.0392,-1.0927 0.1792,-2.1508 0.4474,-3.1657z"/> <path class="fil1" d="M119.827 98.9372c-1.3188,0.1384 -2.6086,0.3033 -3.8695,0.4951 -0.1282,0.6339 -0.2084,1.2854 -0.2477,1.9521 1.2683,0.0133 2.5253,0.0452 3.7716,0.0949 0.0444,-0.8715 0.1549,-1.7204 0.3456,-2.5421z"/> <path class="fil1" d="M115.224 99.5474c-1.328,0.2149 -2.6231,0.4598 -3.8857,0.7352 -0.0499,0.3718 -0.0851,0.7488 -0.107,1.131 1.2706,-0.0296 2.5301,-0.0409 3.7788,-0.0346 0.0355,-0.6227 0.105,-1.2338 0.2139,-1.8316z"/> <path class="fil1" d="M110.614 100.445c-1.517,0.3483 -2.9858,0.7412 -4.4062,1.1785 1.4549,-0.087 2.8958,-0.1507 4.3227,-0.1914 0.0179,-0.3324 0.0456,-0.6616 0.0835,-0.9871z"/> <path class="fil1" d="M142.662 104.653c1.1301,0.2704 2.251,0.5563 3.3625,0.8574 0.4019,-2.349 -0.4329,-4.3445 -3.2679,-5.7684 -0.1348,0.7641 -0.2026,1.553 -0.2156,2.3619 -0.0132,0.8296 0.0312,1.6808 0.121,2.5491z"/> <path class="fil0" d="M75.3891 130.773c-6.914,7.8568 -11.3138,17.5991 -13.1992,29.2268 -2.8284,-12.5705 1.5711,-22.3128 13.1992,-29.2268z"/> </g> </svg>