<?xml version="1.0" encoding="UTF-8" standalone="no"?> <svg width="64" height="64" viewBox="0 0 64 64" fill="none" xmlns="http://www.w3.org/2000/svg">
<path d="M61.15 44.9C60.6193 43.9828 59.7468 43.3132 58.7235 43.0377C57.7002 42.7622 56.6095 42.9032 55.69 43.43L45.94 49.06C45.4076 48.2622 44.6051 47.6834 43.68 47.43L28.76 43.44C27.6118 43.1302 26.4033 43.1198 25.25 43.41L20 44.72V43C20 42.7348 19.8946 42.4804 19.7071 42.2929C19.5196 42.1054 19.2652 42 19 42H11C10.7348 42 10.4804 42.1054 10.2929 42.2929C10.1054 42.4804 10 42.7348 10 43V44H3C2.73478 44 2.48043 44.1054 2.29289 44.2929C2.10536 44.4804 2 44.7348 2 45V59C2 59.2652 2.10536 59.5196 2.29289 59.7071C2.48043 59.8946 2.73478 60 3 60H10V61C10 61.2652 10.1054 61.5196 10.2929 61.7071C10.4804 61.8946 10.7348 62 11 62H19C19.2652 62 19.5196 61.8946 19.7071 61.7071C19.8946 61.5196 20 61.2652 20 61V59.62L21.29 60.26C22.2625 60.7441 23.3336 60.9973 24.42 61H39.39C40.6194 61.0027 41.8274 60.6782 42.89 60.06L59.69 50.36C60.6051 49.8272 61.2723 48.954 61.5458 47.931C61.8193 46.9081 61.6771 45.8184 61.15 44.9V44.9ZM10 58H4V46H10V58ZM18 60H12V44H18V60ZM58.69 48.63L41.89 58.33C41.1302 58.7697 40.2678 59.0008 39.39 59H24.42C23.6421 59.0016 22.8747 58.82 22.18 58.47L20 57.38V46.78L25.73 45.35C26.5546 45.1415 27.4189 45.1484 28.24 45.37L43.16 49.37C43.5439 49.4697 43.8892 49.6817 44.1518 49.9789C44.4143 50.2761 44.5822 50.645 44.6337 51.0382C44.6853 51.4314 44.6183 51.8311 44.4412 52.1859C44.2642 52.5408 43.9852 52.8347 43.64 53.03C43.4146 53.1629 43.1648 53.2492 42.9053 53.2835C42.6459 53.3179 42.3822 53.2997 42.13 53.23L30.2 50.03C29.9427 49.961 29.6686 49.9971 29.438 50.1303C29.2073 50.2634 29.039 50.4827 28.97 50.74C28.901 50.9973 28.9371 51.2714 29.0703 51.502C29.2034 51.7327 29.4227 51.901 29.68 51.97L41.61 55.16C41.9492 55.2513 42.2987 55.2984 42.65 55.3C43.3497 55.301 44.0368 55.1145 44.64 54.76C45.0971 54.4989 45.4977 54.1497 45.8187 53.7326C46.1397 53.3154 46.3747 52.8387 46.51 52.33C46.6209 51.8892 46.6581 51.433 46.62 50.98L56.69 45.17C57.1495 44.9149 57.6901 44.8485 58.1977 44.9847C58.7052 45.121 59.14 45.4492 59.41 45.9C59.6756 46.3577 59.7489 46.902 59.614 47.4137C59.479 47.9254 59.1468 48.3628 58.69 48.63V48.63Z" fill="black"/>
<path d="M15 59C15.2652 59 15.5196 58.8946 15.7071 58.7071C15.8946 58.5196 16 58.2652 16 58V57C16 56.7348 15.8946 56.4804 15.7071 56.2929C15.5196 56.1054 15.2652 56 15 56C14.7348 56 14.4804 56.1054 14.2929 56.2929C14.1054 56.4804 14 56.7348 14 57V58C14 58.2652 14.1054 58.5196 14.2929 58.7071C14.4804 58.8946 14.7348 59 15 59Z" fill="black"/>
<path d="M32 34C31.2044 34 30.4413 33.6839 29.8787 33.1213C29.3161 32.5587 29 31.7956 29 31V25C29 24.2043 29.3161 23.4413 29.8787 22.8787C30.4413 22.3161 31.2044 22 32 22V22C32.5921 21.9987 33.1819 21.9248 33.756 21.78C35.198 21.4111 36.4854 20.5934 37.4321 19.4449C38.3789 18.2964 38.936 16.8766 39.0229 15.3907C39.1098 13.9048 38.722 12.4298 37.9157 11.1787C37.1093 9.92769 35.926 8.96541 34.5369 8.43095C33.1477 7.89649 31.6246 7.81753 30.1876 8.20548C28.7506 8.59344 27.4742 9.42821 26.5428 10.5892C25.6114 11.7501 25.0732 13.1772 25.006 14.6641C24.9388 16.151 25.3461 17.6207 26.169 18.861C26.4803 19.3351 26.6508 19.8878 26.6608 20.4549C26.6708 21.022 26.5198 21.5803 26.2253 22.065C25.9308 22.5498 25.505 22.9411 24.9971 23.1937C24.4893 23.4463 23.9202 23.5497 23.356 23.492C22.9041 23.4452 22.4683 23.298 22.0806 23.0611C21.6928 22.8243 21.3629 22.5037 21.115 22.123C19.4586 19.583 18.7405 16.5447 19.0846 13.5319C19.4288 10.5192 20.8135 7.72099 23 5.61999C24.2605 4.39802 25.758 3.44733 27.4002 2.82661C29.0424 2.20589 30.7944 1.92831 32.548 2.01099C35.8473 2.18788 38.9593 3.59914 41.2662 5.96451C43.573 8.32988 44.9058 11.4763 45 14.779V14.779C45.0678 17.7471 44.1102 20.6478 42.2886 22.9922C40.467 25.3366 37.8928 26.9813 35 27.649V31C35 31.7956 34.6839 32.5587 34.1213 33.1213C33.5587 33.6839 32.7957 34 32 34V34ZM32 24C31.7348 24 31.4804 24.1053 31.2929 24.2929C31.1054 24.4804 31 24.7348 31 25V31C31 31.2652 31.1054 31.5196 31.2929 31.7071C31.4804 31.8946 31.7348 32 32 32C32.2652 32 32.5196 31.8946 32.7071 31.7071C32.8946 31.5196 33 31.2652 33 31V26.83C33.0001 26.5934 33.084 26.3646 33.2369 26.184C33.3898 26.0035 33.6017 25.883 33.835 25.844C36.4366 25.4203 38.7972 24.0702 40.4815 22.0427C42.1659 20.0152 43.0603 17.4471 43 14.812V14.812C42.9199 12.0181 41.7921 9.35658 39.8404 7.35582C37.8887 5.35507 35.256 4.16145 32.465 4.01199C30.4449 3.92883 28.4409 4.40353 26.6728 5.38402C24.9046 6.36451 23.4406 7.81294 22.4412 9.57049C21.4419 11.328 20.9457 13.3268 21.0073 15.3477C21.0688 17.3686 21.6856 19.3335 22.79 21.027C22.8751 21.159 22.9888 21.2703 23.1225 21.3527C23.2563 21.435 23.4068 21.4864 23.563 21.503C23.7499 21.5218 23.9383 21.4876 24.1066 21.4043C24.2749 21.321 24.4164 21.1919 24.5148 21.032C24.6132 20.872 24.6646 20.6875 24.663 20.4997C24.6615 20.3119 24.6071 20.1283 24.506 19.97C23.2699 18.1142 22.7688 15.8647 23.1005 13.6597C23.4321 11.4547 24.5727 9.45208 26.3 8.04199C27.3414 7.18876 28.561 6.58004 29.869 6.2607C31.1769 5.94135 32.5398 5.91951 33.8572 6.19678C35.1747 6.47405 36.4132 7.04336 37.4814 7.86279C38.5497 8.68221 39.4205 9.73086 40.0297 10.9315C40.6389 12.1321 40.9709 13.4541 41.0014 14.8001C41.0319 16.1461 40.76 17.4818 40.2058 18.7087C39.6516 19.9357 38.8291 21.0227 37.7991 21.8896C36.769 22.7566 35.5576 23.3814 34.254 23.718C33.5171 23.904 32.7601 23.9987 32 24V24Z" fill="black"/>
<path d="M32 42C31.4067 42 30.8266 41.8241 30.3333 41.4944C29.8399 41.1648 29.4554 40.6962 29.2284 40.148C29.0013 39.5999 28.9419 38.9967 29.0576 38.4147C29.1734 37.8328 29.4591 37.2982 29.8787 36.8787C30.2982 36.4591 30.8328 36.1734 31.4147 36.0576C31.9967 35.9419 32.5999 36.0013 33.148 36.2284C33.6962 36.4554 34.1648 36.8399 34.4944 37.3333C34.8241 37.8266 35 38.4067 35 39C35 39.7957 34.6839 40.5587 34.1213 41.1213C33.5587 41.6839 32.7957 42 32 42ZM32 38C31.8022 38 31.6089 38.0586 31.4444 38.1685C31.28 38.2784 31.1518 38.4346 31.0761 38.6173C31.0004 38.8 30.9806 39.0011 31.0192 39.1951C31.0578 39.3891 31.153 39.5673 31.2929 39.7071C31.4327 39.847 31.6109 39.9422 31.8049 39.9808C31.9989 40.0194 32.2 39.9996 32.3827 39.9239C32.5654 39.8482 32.7216 39.72 32.8315 39.5556C32.9414 39.3911 33 39.1978 33 39C33 38.7348 32.8946 38.4804 32.7071 38.2929C32.5196 38.1054 32.2652 38 32 38Z" fill="black"/>
</svg>
